<svg xmlns="http://www.w3.org/2000/svg" width="24.345" height="23.216" viewBox="0 0 24.345 23.216">
  <g id="active_star" data-name="active star" transform="translate(0 -0.452)">
    <path id="Path_10036" data-name="Path 10036" d="M12.748.834l3.1,7.329,7.928.681a.625.625,0,0,1,.356,1.095l-6.013,5.21,1.8,7.75a.624.624,0,0,1-.931.676l-6.813-4.109L5.36,23.576a.625.625,0,0,1-.931-.676l1.8-7.75L.216,9.938A.625.625,0,0,1,.572,8.843L8.5,8.162,11.6.834a.624.624,0,0,1,1.151,0Z" fill="#ffcc47"/>
  </g>
</svg>
