<svg xmlns="http://www.w3.org/2000/svg" width="23.289" height="15.258" viewBox="0 0 23.289 15.258">
  <g id="arabic" transform="translate(0 -0.002)">
    <path id="Path_2053" data-name="Path 2053" d="M22.889,103.536H.4a.4.4,0,0,1-.4-.4V88.678a.4.4,0,0,1,.4-.4H22.889a.4.4,0,0,1,.4.4v14.456a.4.4,0,0,1-.4.4Z" transform="translate(0 -88.276)" fill="#006c35"/>
    <g id="Group_3247" data-name="Group 3247" transform="translate(4.605 3.213)">
      <path id="Path_2054" data-name="Path 2054" d="M102.371,167.717c.04.254.193.333.326.323a.328.328,0,0,0,.3-.308v-.871a.079.079,0,0,1,.158,0v.874a.316.316,0,0,0,.434.294l.079-.032c.007.731-.037,1.373-.038,1.385a.158.158,0,0,0,.147.169h.011a.158.158,0,0,0,.158-.147c0-.051.052-.755.038-1.534l.048-.019a.159.159,0,0,1,.129.005.452.452,0,0,0,.522-.085l.029-.028a.473.473,0,0,0,.115-.486l-.135-.4a.158.158,0,0,0,.117-.293l-.317-.158a.158.158,0,0,0-.221.192l.255.764a.158.158,0,0,1-.038.162l-.028.028a.136.136,0,0,1-.157.025.473.473,0,0,0-.329-.033,5.46,5.46,0,0,0-.194-1.364.158.158,0,0,0-.3.1,5.443,5.443,0,0,1,.181,1.382l-.19.076v-.874a.4.4,0,0,0-.792,0v.766l-.161-.8a.158.158,0,0,0-.31.063Z" transform="translate(-102.156 -165.744)" fill="#f5f5f5"/>
      <path id="Path_2055" data-name="Path 2055" d="M109.318,163.069a.158.158,0,0,0,.158-.158v-.158a.159.159,0,0,0-.317,0v.158a.158.158,0,0,0,.159.158Z" transform="translate(-108.799 -162.426)" fill="#f5f5f5"/>
      <path id="Path_2056" data-name="Path 2056" d="M144.115,162.911h.158a.159.159,0,0,0,0-.317h-.158a.158.158,0,1,0,0,.317Z" transform="translate(-142.013 -162.426)" fill="#f5f5f5"/>
      <path id="Path_2057" data-name="Path 2057" d="M106.547,214.813l-.791.475a.158.158,0,0,0,.163.271l.791-.475a.158.158,0,1,0-.163-.271Z" transform="translate(-105.476 -212.248)" fill="#f5f5f5"/>
      <path id="Path_2058" data-name="Path 2058" d="M118.572,168.592h0a.362.362,0,0,0,.073.149.311.311,0,0,0,.27.1.437.437,0,0,0,.329-.173l.033.02a.3.3,0,0,0,.279-.009.6.6,0,0,0,.283-.557.162.162,0,0,0-.165-.15.159.159,0,0,0-.151.164s0,.19-.111.26a.385.385,0,0,1-.049-.133.158.158,0,0,0-.314.026c0,.023,0,.226-.162.243a.386.386,0,0,1,0-.207.158.158,0,0,0-.243-.168l-.088.06c-.042-.918-.139-1.988-.14-2a.158.158,0,0,0-.315.029c0,.015.113,1.252.148,2.2l-.024.023a.408.408,0,0,0-.346-.272.578.578,0,0,0-.558.353.374.374,0,0,0,.121.472.528.528,0,0,0,.472.022,1.324,1.324,0,0,1-.257.488.664.664,0,0,1-.506.258.416.416,0,0,1-.307-.131.9.9,0,0,1-.167-.566.158.158,0,0,0-.149-.166.155.155,0,0,0-.167.149,1.214,1.214,0,0,0,.249.8.726.726,0,0,0,.53.235h.032a.965.965,0,0,0,.726-.368,1.637,1.637,0,0,0,.362-.811,1.794,1.794,0,0,1-.759,1.421.79.79,0,0,1-.793.058.679.679,0,0,1-.348-.67.158.158,0,1,0-.314-.039.994.994,0,0,0,.522.993,1.076,1.076,0,0,0,.479.114,1.172,1.172,0,0,0,.621-.187,2.1,2.1,0,0,0,.909-1.691C118.577,168.82,118.575,168.709,118.572,168.592Zm-.955.163c-.028-.019-.006-.078,0-.09a.269.269,0,0,1,.221-.156h.013c.02,0,.074.007.1.126a.089.089,0,0,0,.006.039c-.181.1-.3.108-.34.081Z" transform="translate(-115.367 -165.747)" fill="#f5f5f5"/>
      <path id="Path_2059" data-name="Path 2059" d="M101.825,243.289a.159.159,0,0,0-.216.056.324.324,0,0,1-.027.038l0-.013a1.065,1.065,0,0,1,0-.537.158.158,0,0,0-.306-.082,1.363,1.363,0,0,0,0,.73c.073.194.184.242.265.249h.021a.416.416,0,0,0,.315-.226.158.158,0,0,0-.047-.215Z" transform="translate(-101.226 -238.825)" fill="#f5f5f5"/>
      <path id="Path_2060" data-name="Path 2060" d="M175.288,164.02a.157.157,0,0,0,.1-.034l.8-.627a.153.153,0,0,0,.026-.031.4.4,0,1,0-.455-.035l-.565.443a.158.158,0,0,0,.1.283Zm.719-1.108a.079.079,0,1,1-.079.079A.079.079,0,0,1,176.007,162.912Z" transform="translate(-171.768 -162.427)" fill="#f5f5f5"/>
      <path id="Path_2061" data-name="Path 2061" d="M185.383,190.44a.158.158,0,0,0-.2.1.484.484,0,0,0,.062.467.319.319,0,0,0,.236.09.7.7,0,0,0,.219-.04.158.158,0,1,0-.1-.3.549.549,0,0,1-.129.028.3.3,0,0,1,.013-.145.158.158,0,0,0-.1-.2Z" transform="translate(-181.331 -188.998)" fill="#f5f5f5"/>
      <path id="Path_2062" data-name="Path 2062" d="M227.73,163.074a.158.158,0,0,0,.2-.108l.092-.317a.158.158,0,1,0-.3-.089l-.092.317a.158.158,0,0,0,.1.2Z" transform="translate(-221.866 -162.286)" fill="#f5f5f5"/>
      <path id="Path_2063" data-name="Path 2063" d="M205.974,159.668a.158.158,0,1,0,.16-.273c-.032-.019-.028-.071-.026-.081a.124.124,0,0,1,.073-.106.158.158,0,0,0-.094-.3.435.435,0,0,0-.293.372A.39.39,0,0,0,205.974,159.668Z" transform="translate(-201.033 -158.898)" fill="#f5f5f5"/>
      <path id="Path_2064" data-name="Path 2064" d="M178.912,232.19a.158.158,0,0,0-.03.314.3.3,0,0,1,.03.161.158.158,0,1,0,.317,0C179.229,232.2,178.925,232.19,178.912,232.19Z" transform="translate(-175.227 -228.856)" fill="#f5f5f5"/>
      <path id="Path_2065" data-name="Path 2065" d="M234.742,208.282a.363.363,0,0,0,.06,0,.541.541,0,0,0,.374-.187.158.158,0,1,0-.224-.224c-.1.1-.146.1-.159.094-.03,0-.058-.044-.064-.055a.158.158,0,1,0-.282.143.428.428,0,0,0,.295.229Z" transform="translate(-228.372 -205.604)" fill="#f5f5f5"/>
      <path id="Path_2066" data-name="Path 2066" d="M293.9,190.93v-.007a.158.158,0,0,0-.3.1.354.354,0,0,0,.258.247h.035a.388.388,0,0,0,.306-.211.158.158,0,0,0-.263-.176.485.485,0,0,1-.036.047Z" transform="translate(-284.835 -189.364)" fill="#f5f5f5"/>
      <path id="Path_2067" data-name="Path 2067" d="M203.906,170.182c0-.675-.03-1.308-.071-1.863a8.014,8.014,0,0,1,.556,1.127.16.16,0,1,0,.3-.111,10.482,10.482,0,0,0-.915-1.735c-.087-.853-.183-1.394-.185-1.4a.158.158,0,0,0-.311.057c0,.007.051.286.111.755-.122-.18-.235-.343-.329-.477h.008a.158.158,0,1,0,.1-.3l-.475-.158a.157.157,0,0,0-.178.058.159.159,0,0,0-.023.048.345.345,0,0,0-.33-.079.269.269,0,0,0-.151.282,1.43,1.43,0,0,0,.109.448c.093.264.152.458.053.551a.173.173,0,0,1-.162.057c-.1-.025-.194-.155-.259-.348a.147.147,0,0,0-.013-.022,2.692,2.692,0,0,0-.048-.876.158.158,0,0,0-.31.062,1.507,1.507,0,0,1-.083,1.128.284.284,0,0,1-.237.107.091.091,0,0,1-.076-.035,1.525,1.525,0,0,1-.084-.892.158.158,0,0,0-.157-.181c-.272,0-.376.31-.467.583-.04.12-.114.344-.166.367-.1,0-.158-.281-.158-.475a.158.158,0,0,0-.158-.158h0a.158.158,0,0,0-.158.158c0,.365.124.791.475.791.261,0,.367-.284.455-.549a.992.992,0,0,0,.18.563.406.406,0,0,0,.315.145.6.6,0,0,0,.481-.223.732.732,0,0,0,.059-.087.591.591,0,0,0,.332.249.455.455,0,0,0,.112.014.5.5,0,0,0,.345-.147.469.469,0,0,0,.053-.064.428.428,0,0,0,.117.018.64.64,0,0,0,.328-.1.158.158,0,1,0-.17-.267.336.336,0,0,1-.179.047,1.633,1.633,0,0,0-.12-.52,2.2,2.2,0,0,1-.082-.265l.037.034a.158.158,0,0,0,.224,0,.152.152,0,0,0,.023-.035c.164.226.5.7.849,1.249.066.673.124,1.532.124,2.473a.158.158,0,1,0,.317,0Z" transform="translate(-195.156 -165.74)" fill="#f5f5f5"/>
      <path id="Path_2068" data-name="Path 2068" d="M293.745,166.709a.158.158,0,0,0,.317,0,1.613,1.613,0,0,0-.175-.546.158.158,0,0,0-.283.142,1.4,1.4,0,0,1,.141.4Z" transform="translate(-284.836 -165.75)" fill="#f5f5f5"/>
      <path id="Path_2069" data-name="Path 2069" d="M263.133,249.923a.158.158,0,0,0-.213.07.449.449,0,0,1-.066.094.885.885,0,0,1,.042-.293.158.158,0,0,0-.263-.158l-.317.317a.158.158,0,0,0,.224.224l.008-.008a.327.327,0,0,0,.085.166.29.29,0,0,0,.206.091.28.28,0,0,0,.044,0,.515.515,0,0,0,.321-.287.158.158,0,0,0-.071-.216Z" transform="translate(-254.945 -245.463)" fill="#f5f5f5"/>
      <path id="Path_2070" data-name="Path 2070" d="M170.065,205.467h-1.116c.01-.039.02-.077.03-.113.445-.092.709-.236.787-.428a.354.354,0,0,0-.06-.355.392.392,0,0,0-.4-.171c-.225.046-.425.288-.569.676a1.82,1.82,0,0,0-.914.4,2.452,2.452,0,0,0-.328-1.052.158.158,0,1,0-.263.176,2.286,2.286,0,0,1,.29,1.179,1.253,1.253,0,0,1-.95,1.266c-.178,0-.256-.211-.29-.39a1.818,1.818,0,0,0,.76-.838,1.259,1.259,0,0,0-.105-.858l-.012-.028.01.009a.158.158,0,0,0,.224-.224c-.093-.093-.272-.238-.436-.17a.269.269,0,0,0-.151.282.673.673,0,0,0,.074.254.957.957,0,0,1,.089.657,1.339,1.339,0,0,1-.518.571.156.156,0,0,0-.12-.058h0a.158.158,0,0,0-.158.158c0,.028,0,.059,0,.09a8.319,8.319,0,0,1-1.018.557.158.158,0,0,0,.066.3.156.156,0,0,0,.065-.014,9.121,9.121,0,0,0,.945-.506.616.616,0,0,0,.572.521,1.345,1.345,0,0,0,1.059-.774.919.919,0,0,0,.106.151,1.784,1.784,0,0,0,1.21.465.158.158,0,1,0,.011-.316.339.339,0,0,1-.2-.1.271.271,0,0,1-.052-.208c.016-.2.645-.341,1.2-.35a.158.158,0,0,0,.147-.105l.158-.445a.158.158,0,0,0-.149-.211Zm-.7-.756h.012c.015,0,.039.007.071.05.006.008.025.036.02.048-.018.045-.127.119-.355.186C169.219,204.8,169.317,204.722,169.37,204.711Zm-.956,2.081a.969.969,0,0,1-.438-.266.673.673,0,0,1-.141-.557.467.467,0,0,1,.033-.067c.223-.02.818.067.86.238a.532.532,0,0,0-.335.413.667.667,0,0,0,.021.239Z" transform="translate(-161.938 -202.281)" fill="#f5f5f5"/>
      <path id="Path_2071" data-name="Path 2071" d="M291.365,166.654l-.158-.475a.158.158,0,0,0-.308.066c.109,1.092.316,3.222.316,3.467,0,.219-.39.651-1.021.966a.158.158,0,1,0,.142.283c.576-.288,1.2-.8,1.2-1.25,0-.234-.162-1.917-.254-2.862a.158.158,0,0,0,.083-.195Z" transform="translate(-281.515 -165.744)" fill="#f5f5f5"/>
      <path id="Path_2072" data-name="Path 2072" d="M335.867,194a.158.158,0,0,0,.265-.151.8.8,0,0,1-.023-.307.161.161,0,0,0,.165-.136.158.158,0,0,0-.134-.179.286.286,0,0,0-.261.088.363.363,0,0,0-.08.17l-.183-.183a.158.158,0,0,0-.224.224Z" transform="translate(-324.696 -191.659)" fill="#f5f5f5"/>
      <path id="Path_2073" data-name="Path 2073" d="M340.788,213.294l-.594.425a.158.158,0,1,0,.184.257l.594-.425a.158.158,0,0,0-.185-.257Z" transform="translate(-329.261 -210.791)" fill="#f5f5f5"/>
      <path id="Path_2074" data-name="Path 2074" d="M352.776,225.724a.158.158,0,0,0,.014.21.439.439,0,0,1,.032.228.158.158,0,0,0,.153.164h.006a.158.158,0,0,0,.158-.153c.012-.323-.094-.441-.14-.477a.158.158,0,0,0-.223.028Z" transform="translate(-341.301 -222.626)" fill="#f5f5f5"/>
      <path id="Path_2075" data-name="Path 2075" d="M324.26,170.014a.158.158,0,0,0,.158-.158c0-.234-.012-.494-.032-.766a5.781,5.781,0,0,1,.371.689.158.158,0,0,0,.146.1.156.156,0,0,0,.062-.013.158.158,0,0,0,.083-.208,8.706,8.706,0,0,0-.724-1.249c-.062-.581-.143-1.15-.206-1.559a.153.153,0,0,0,.1-.025.156.156,0,0,0,.07-.143.153.153,0,0,0,.018.046.576.576,0,0,1,.058.388.158.158,0,0,0,.123.187.167.167,0,0,0,.032,0,.158.158,0,0,0,.155-.126.9.9,0,0,0-.1-.622.159.159,0,0,0-.219-.049.157.157,0,0,0-.071.143.152.152,0,0,0-.018-.046l-.267-.415a.158.158,0,0,0-.289.113c0,.012.123.707.23,1.544-.121-.171-.243-.339-.36-.5-.019-.239-.038-.461-.055-.644l.026-.01a.158.158,0,0,0,.071-.212l-.158-.317a.158.158,0,0,0-.3.087c.019.189.039.4.058.618-.1-.132-.193-.253-.272-.355a.158.158,0,0,0-.032-.262l-.317-.158a.158.158,0,0,0-.194.241c.009.011.4.5.865,1.13a12.729,12.729,0,0,1,.059,2.362c-.014.042-.038.091-.061.093-.1.013-.324-.2-.439-.43a.22.22,0,0,0-.212-.143c-.17.01-.236.2-.357.537a2.228,2.228,0,0,1-.315.67,1.8,1.8,0,0,1-.2-.623.157.157,0,0,0,.306-.053c0-.236-.165-2.034-.257-3.019a.158.158,0,0,0,.091-.2l-.158-.475a.158.158,0,0,0-.308.065c.108,1.129.309,3.31.316,3.611v-.008a.158.158,0,1,0-.313.045c.046.324.164.88.436.97a.264.264,0,0,0,.084.014.311.311,0,0,0,.223-.1,2.283,2.283,0,0,0,.392-.791c.023-.066.051-.143.077-.21.145.212.4.476.655.455a.389.389,0,0,0,.339-.308,8.916,8.916,0,0,0-.006-1.976c.133.187.267.378.394.567.049.474.085.949.085,1.339A.159.159,0,0,0,324.26,170.014Z" transform="translate(-311.404 -165.75)" fill="#f5f5f5"/>
      <path id="Path_2076" data-name="Path 2076" d="M382.482,169.594c-.112-.835-.268-1.8-.367-2.4a.156.156,0,0,0,.133-.028.158.158,0,0,0,.03-.222l-.287-.376a.158.158,0,0,0-.282.123c0,.016.285,1.641.46,2.942a1.484,1.484,0,0,1-.261,1.188.7.7,0,0,1-.581.216.158.158,0,1,0-.02.316h.079a1,1,0,0,0,.753-.319A1.767,1.767,0,0,0,382.482,169.594Z" transform="translate(-368.425 -166.163)" fill="#f5f5f5"/>
      <path id="Path_2077" data-name="Path 2077" d="M371.056,256.183a.16.16,0,0,0,.008.222.066.066,0,0,1,.019.033.073.073,0,0,1-.024.035.158.158,0,1,0,.224.224.359.359,0,0,0,.117-.27.377.377,0,0,0-.124-.258.157.157,0,0,0-.22.014Z" transform="translate(-358.74 -251.708)" fill="#f5f5f5"/>
      <path id="Path_2078" data-name="Path 2078" d="M153.771,326.938h-1.108v-.158a.158.158,0,1,0-.317,0v.158h-8.39a2.21,2.21,0,0,0,1.425.475h6.965v.317a.158.158,0,0,0,.158.158h1.266a.475.475,0,0,0,0-.95Zm0,.633h-1.108v-.158h1.266l-.028-.085a.153.153,0,0,1,.028.085.158.158,0,0,1-.158.158Z" transform="translate(-142.013 -318.991)" fill="#f5f5f5"/>
    </g>
  </g>
</svg>
