<svg xmlns="http://www.w3.org/2000/svg" width="29.788" height="18.069" viewBox="0 0 29.788 18.069"><path d="M1814.749,973.295H1797.08a.726.726,0,0,0-.726.727v2.911a.727.727,0,0,0,1.453,0v-2.184h7.382v15.163h-4.6a.727.727,0,0,0,0,1.453h10.642a.727.727,0,0,0,0-1.453h-4.593V974.748h7.38v2.184a.727.727,0,1,0,1.453,0v-2.911A.726.726,0,0,0,1814.749,973.295Z" transform="translate(-1796.354 -973.295)" fill="#fff"/><g transform="translate(18.673 6.336)"><rect width="11.115" height="11.671" rx="0.915" fill="#fff"/><path d="M1829.6,989.1l1.481-1.481a.726.726,0,0,0-1.027-1.027l-1.481,1.481-1.481-1.481a.726.726,0,0,0-1.027,1.027l1.482,1.481-1.482,1.481a.726.726,0,1,0,1.027,1.027l1.481-1.481,1.481,1.481a.726.726,0,0,0,1.027-1.027Z" transform="translate(-1823.093 -983.208)" fill="#1c1c1c"/></g></svg>