<svg xmlns="http://www.w3.org/2000/svg" xmlns:xlink="http://www.w3.org/1999/xlink" width="201" height="70" viewBox="0 0 201 70"><defs><filter id="a" x="3" y="1" width="198" height="69" filterUnits="userSpaceOnUse"><feOffset dy="3" input="SourceAlpha"/><feGaussianBlur stdDeviation="3" result="b"/><feFlood flood-opacity="0.051"/><feComposite operator="in" in2="b"/><feComposite in="SourceGraphic"/></filter></defs><circle cx="32.5" cy="32.5" r="32.5" transform="translate(6)" fill="#2fcf8e"/><path d="M10,0,20,8H0Z" transform="translate(0 43) rotate(-90)" fill="#2fcf8e"/><g transform="matrix(1, 0, 0, 1, 0, 0)" filter="url(#a)"><rect width="180" height="51" rx="25.5" transform="translate(12 7)" fill="#202223"/></g><g transform="translate(23.41 14.91)"><circle cx="16.637" cy="16.637" r="16.637" transform="translate(1.363 1.363)" fill="#2ecc8c"/><path d="M18,36A18,18,0,1,1,36,18,18.021,18.021,0,0,1,18,36ZM18,2.789A15.211,15.211,0,1,0,33.211,18,15.228,15.228,0,0,0,18,2.789Z" fill="#2ecc8c"/><path d="M138.457,174.768a1.361,1.361,0,0,1-.972-.407l-5.028-5.109a1.362,1.362,0,1,1,1.943-1.91l4.017,4.082,8.31-9.152a1.362,1.362,0,1,1,2.016,1.833l-9.279,10.219a1.363,1.363,0,0,1-.981.447Z" transform="translate(-122.582 -150.296)" fill="#fff"/></g></svg>