<svg xmlns="http://www.w3.org/2000/svg" width="240.664" height="30.54" viewBox="0 0 240.664 30.54"><g transform="translate(-471.168 -419.415)"><rect width="55.481" height="30.54" rx="5" transform="translate(545.466 419.415)" fill="#573e92"/><g transform="translate(550.834 424.78)"><path d="M406.171,322.252a9.529,9.529,0,0,0-3.335,2.776H392.043l-1.971-2.776Z" transform="translate(-377.324 -322.251)" fill="#77ecaa"/><path d="M401.01,356.7h-8.968l-1.97-2.776h10.937a9.642,9.642,0,0,0,0,2.776Z" transform="translate(-377.324 -346.787)" fill="#77ecaa"/><path d="M406.179,388.378H390.072l1.971-2.776h10.8A9.527,9.527,0,0,0,406.179,388.378Z" transform="translate(-377.324 -371.322)" fill="#77ecaa"/><path d="M4.926,0A4.956,4.956,0,1,1,0,4.956,4.941,4.941,0,0,1,4.926,0Z" transform="translate(28.117 3.57)" fill="#faaf40"/><path d="M467.55,353.938a3.946,3.946,0,0,1-1.121.162,4.011,4.011,0,0,1-2.742-6.911,4.953,4.953,0,0,0,3.863,6.749Z" transform="translate(-433.385 -341.567)" fill="#573e92"/><path d="M346.939,334.347a4.963,4.963,0,0,1-4.957,4.957h-8.466l1.971-2.776h6.5a2.181,2.181,0,0,0,0-4.361h-3.5a4.957,4.957,0,0,1,0-9.914h6.5l1.971,2.776h-8.467a2.181,2.181,0,1,0,0,4.361h3.5A4.963,4.963,0,0,1,346.939,334.347Z" transform="translate(-333.516 -322.251)" fill="#ff7171"/><path d="M462.416,340.121l-4.468-4.468A8.459,8.459,0,1,0,451,339.3a8.391,8.391,0,0,0,4.891-1.567l4.455,4.455a.541.541,0,0,0,.764,0l1.3-1.3A.54.54,0,0,0,462.416,340.121ZM444.5,330.776a6.5,6.5,0,1,1,6.5,6.543A6.521,6.521,0,0,1,444.5,330.776Z" transform="translate(-417.958 -322.249)" fill="#fff"/></g><g transform="translate(471.168 422.355)"><path d="M109.143,331.167a5.863,5.863,0,0,1,2.5-2.173,8.57,8.57,0,0,1,3.742-.776,7.64,7.64,0,0,1,5.121,1.656,5.462,5.462,0,0,1,1.949,4.38h-1.517a4.266,4.266,0,0,0-1.518-3.414,6.065,6.065,0,0,0-4.07-1.293,6,6,0,0,0-4.035,1.311,4.3,4.3,0,0,0-1.535,3.431,3.742,3.742,0,0,0,.742,2.432A4.365,4.365,0,0,0,112.092,338a17.005,17.005,0,0,0,2.035.733l4.018,1.172a13.1,13.1,0,0,1,2.026.784,5.5,5.5,0,0,1,1.9,1.7,5.1,5.1,0,0,1,.923,3.155,5.462,5.462,0,0,1-2.069,4.492,9.7,9.7,0,0,1-10.76.069,5.931,5.931,0,0,1-2.328-4.423h1.621a4.183,4.183,0,0,0,1.716,3.5,7.237,7.237,0,0,0,4.406,1.241,6.607,6.607,0,0,0,4.362-1.311,4.329,4.329,0,0,0,1.569-3.5,3.543,3.543,0,0,0-1.224-3.035,9.131,9.131,0,0,0-2.949-1.414l-3.948-1.086a13.255,13.255,0,0,1-2.267-.845,5.584,5.584,0,0,1-1.94-1.7,5.052,5.052,0,0,1-.914-3.147A5.922,5.922,0,0,1,109.143,331.167Z" transform="translate(-107.833 -327.046)" fill="#fff"/><path d="M181.879,351.678a5.588,5.588,0,0,1,1.448,4.216v10.139h-1.345v-9.949q0-4.517-4.07-4.535a4.242,4.242,0,0,0-2.38.656A4.4,4.4,0,0,0,174,353.9a4.791,4.791,0,0,0-.535,2.216v9.915H172.05v-9.949a4.837,4.837,0,0,0-1.095-3.345,3.852,3.852,0,0,0-3.026-1.224,4.14,4.14,0,0,0-2.336.655,4.326,4.326,0,0,0-1.518,1.716,4.889,4.889,0,0,0-.526,2.2v9.949h-1.414V350.7h1.087l.258,2.4a4.426,4.426,0,0,1,1.8-2.06,5.685,5.685,0,0,1,5.94.181,4.721,4.721,0,0,1,1.828,2.552,5.179,5.179,0,0,1,4.983-3.483A5.327,5.327,0,0,1,181.879,351.678Z" transform="translate(-144.063 -341.772)" fill="#fff"/><path d="M249.591,350.7V366H248.28v-3.638a6.227,6.227,0,0,1-2.405,2.931,7.571,7.571,0,0,1-7.768.129,6.957,6.957,0,0,1-2.595-2.845,9.984,9.984,0,0,1,0-8.458,6.871,6.871,0,0,1,2.612-2.828,7.184,7.184,0,0,1,3.759-1,7.376,7.376,0,0,1,4.044,1.112,5.637,5.637,0,0,1,2.388,2.905l.069-3.6Zm-3.225,12.579a7.312,7.312,0,0,0,1.655-5.027,7.08,7.08,0,0,0-1.621-4.888,6.051,6.051,0,0,0-8.725.078,7.228,7.228,0,0,0-1.655,4.932,7.137,7.137,0,0,0,1.647,4.923,5.5,5.5,0,0,0,4.32,1.854A5.563,5.563,0,0,0,246.366,363.283Z" transform="translate(-192.392 -341.772)" fill="#fff"/><path d="M292.192,324.7h1.414v24.227h-1.414Z" transform="translate(-230.836 -324.695)" fill="#fff"/><path d="M309.552,324.7h1.414v24.227h-1.414Z" transform="translate(-242.418 -324.695)" fill="#fff"/></g><g transform="translate(606.651 422.355)"><path d="M0,0H34.676V15.818H0Z" transform="translate(70.506 9.781)" fill="#573e92"/><g transform="translate(0 0)"><path d="M550.925,330.807h-7.139v21.227H542.3V330.807h-7.156v-1.414H542.3v-.034h1.483v.034h7.139Z" transform="translate(-535.147 -327.807)" fill="#fff"/><path d="M576.435,354.351a7.713,7.713,0,0,1,2.862-2.966,7.911,7.911,0,0,1,4.13-1.095,8,8,0,0,1,4.147,1.095,7.809,7.809,0,0,1,2.9,2.966,8.2,8.2,0,0,1,1.043,4.061,8.014,8.014,0,0,1-1.043,4.027,7.75,7.75,0,0,1-2.9,2.914,8.1,8.1,0,0,1-4.147,1.078,7.943,7.943,0,0,1-4.1-1.078,7.781,7.781,0,0,1-2.879-2.914,8.005,8.005,0,0,1-1.043-4.027A8.307,8.307,0,0,1,576.435,354.351Zm1.285,7.492a6.183,6.183,0,0,0,2.319,2.423,6.494,6.494,0,0,0,3.389.888,6.572,6.572,0,0,0,3.414-.888,6.292,6.292,0,0,0,2.345-2.423,7,7,0,0,0,.845-3.432,7.133,7.133,0,0,0-.845-3.466,6.388,6.388,0,0,0-2.345-2.457,6.916,6.916,0,0,0-6.811-.017,6.173,6.173,0,0,0-2.311,2.44,7.321,7.321,0,0,0-.828,3.5A7.111,7.111,0,0,0,577.72,361.843Z" transform="translate(-562.01 -341.772)" fill="#fff"/><path d="M630.323,354.351a7.714,7.714,0,0,1,2.862-2.966,7.91,7.91,0,0,1,4.13-1.095,8,8,0,0,1,4.147,1.095,7.808,7.808,0,0,1,2.9,2.966,8.2,8.2,0,0,1,1.044,4.061,8.014,8.014,0,0,1-1.044,4.027,7.749,7.749,0,0,1-2.9,2.914,8.1,8.1,0,0,1-4.147,1.078,7.94,7.94,0,0,1-4.1-1.078,7.782,7.782,0,0,1-2.88-2.914,8.008,8.008,0,0,1-1.043-4.027A8.307,8.307,0,0,1,630.323,354.351Zm1.285,7.492a6.182,6.182,0,0,0,2.319,2.423,6.492,6.492,0,0,0,3.388.888,6.575,6.575,0,0,0,3.414-.888,6.292,6.292,0,0,0,2.345-2.423,7,7,0,0,0,.845-3.432,7.131,7.131,0,0,0-.845-3.466,6.389,6.389,0,0,0-2.345-2.457,6.916,6.916,0,0,0-6.811-.017,6.175,6.175,0,0,0-2.311,2.44,7.32,7.32,0,0,0-.828,3.5A7.109,7.109,0,0,0,631.608,361.843Z" transform="translate(-597.963 -341.772)" fill="#fff"/><path d="M687.02,324.7h1.414v24.227H687.02Z" transform="translate(-636.475 -324.695)" fill="#fff"/><path d="M702.262,365.223a4.064,4.064,0,0,1-1.716-3.173h1.345a2.931,2.931,0,0,0,1.319,2.345,5.517,5.517,0,0,0,3.164.828,5.172,5.172,0,0,0,3.112-.828,2.7,2.7,0,0,0,1.13-2.31q0-2.362-3.1-3l-2.932-.638q-3.569-.776-3.57-3.931a3.742,3.742,0,0,1,1.449-3.052,6.764,6.764,0,0,1,7.725.078,4.272,4.272,0,0,1,1.552,3.267h-1.328a2.967,2.967,0,0,0-1.173-2.423,5.517,5.517,0,0,0-5.768-.112,2.523,2.523,0,0,0-1.043,2.173,2.2,2.2,0,0,0,.828,1.931,5.239,5.239,0,0,0,2,.828l3.207.707a4.892,4.892,0,0,1,2.7,1.509,3.9,3.9,0,0,1,.905,2.595,3.858,3.858,0,0,1-1.535,3.233,6.711,6.711,0,0,1-4.19,1.181A6.617,6.617,0,0,1,702.262,365.223Z" transform="translate(-645.5 -341.772)" fill="#fff"/></g><g transform="translate(72.568 13.974)"><path d="M753.484,384.615a.972.972,0,0,1-.292-.708,1.031,1.031,0,0,1,.292-.735,1.071,1.071,0,0,1,1.5,0,1.019,1.019,0,0,1,.3.739.965.965,0,0,1-.3.708,1,1,0,0,1-.739.3A1.02,1.02,0,0,1,753.484,384.615Z" transform="translate(-753.192 -377.478)" fill="#fff"/><path d="M760.766,368.453a3.282,3.282,0,0,1,1.284-1.308,3.778,3.778,0,0,1,1.887-.463,3.7,3.7,0,0,1,2.28.693,2.8,2.8,0,0,1,1.113,1.876h-1.354a1.664,1.664,0,0,0-.708-1.027,2.349,2.349,0,0,0-1.346-.373,2.138,2.138,0,0,0-1.65.685,2.664,2.664,0,0,0-.63,1.875,2.7,2.7,0,0,0,.607,1.841,2.1,2.1,0,0,0,1.673.7,2.348,2.348,0,0,0,1.354-.381,1.611,1.611,0,0,0,.7-1h1.354a2.841,2.841,0,0,1-1.125,1.849,3.624,3.624,0,0,1-2.253.7,3.856,3.856,0,0,1-1.911-.463,3.216,3.216,0,0,1-1.284-1.308,4.044,4.044,0,0,1-.455-1.95A3.975,3.975,0,0,1,760.766,368.453Z" transform="translate(-757.937 -366.682)" fill="#fff"/><path d="M783.677,368.515a3.532,3.532,0,0,1,1.339-1.339,3.858,3.858,0,0,1,1.958-.494,3.924,3.924,0,0,1,1.969.494,3.509,3.509,0,0,1,1.35,1.339,3.775,3.775,0,0,1,.479,1.9,3.721,3.721,0,0,1-.487,1.884,3.521,3.521,0,0,1-1.346,1.335,3.924,3.924,0,0,1-1.965.487,3.877,3.877,0,0,1-1.942-.487,3.528,3.528,0,0,1-1.346-1.331,3.709,3.709,0,0,1-.487-1.887A3.776,3.776,0,0,1,783.677,368.515Zm1.568,3.7a2.275,2.275,0,0,0,1.728.716,2.324,2.324,0,0,0,1.763-.716,2.515,2.515,0,0,0,.681-1.806,2.56,2.56,0,0,0-.677-1.821,2.308,2.308,0,0,0-1.767-.724,2.263,2.263,0,0,0-1.728.724,2.562,2.562,0,0,0-.677,1.821A2.524,2.524,0,0,0,785.246,372.216Z" transform="translate(-773.212 -366.682)" fill="#fff"/><path d="M818.821,367.359a2.559,2.559,0,0,1,.7,1.923v4.654H818.21V369.57a1.834,1.834,0,0,0-.408-1.308,1.481,1.481,0,0,0-1.125-.428,1.549,1.549,0,0,0-1.234.525,1.878,1.878,0,0,0-.455,1.273v4.3H813.68V369.57a1.845,1.845,0,0,0-.412-1.273,1.463,1.463,0,0,0-1.152-.463,1.514,1.514,0,0,0-1.2.525,1.856,1.856,0,0,0-.455,1.257v4.319h-1.323v-7.043h1.183l.093.9a2.157,2.157,0,0,1,.852-.81,2.5,2.5,0,0,1,1.2-.3,2.561,2.561,0,0,1,1.4.385,2.131,2.131,0,0,1,.864,1.031,2.226,2.226,0,0,1,.9-1.043,2.59,2.59,0,0,1,1.385-.373A2.487,2.487,0,0,1,818.821,367.359Z" transform="translate(-790.517 -366.682)" fill="#fff"/></g></g></g></svg>