<svg xmlns="http://www.w3.org/2000/svg" xmlns:xlink="http://www.w3.org/1999/xlink" width="201" height="69" viewBox="0 0 201 69"><defs><filter id="a" x="0" y="1" width="198" height="68" filterUnits="userSpaceOnUse"><feOffset dy="3" input="SourceAlpha"/><feGaussianBlur stdDeviation="3" result="b"/><feFlood flood-opacity="0.051"/><feComposite operator="in" in2="b"/><feComposite in="SourceGraphic"/></filter></defs><g transform="translate(-246 -325)"><g transform="translate(863 -1013)"><circle cx="32.5" cy="32.5" r="32.5" transform="translate(-487 1338)" fill="#2bc6e3"/><path d="M10,0,20,8H0Z" transform="translate(-416 1361) rotate(90)" fill="#2bc6e3"/></g><g transform="matrix(1, 0, 0, 1, 246, 325)" filter="url(#a)"><rect width="180" height="50" rx="25" transform="translate(9 7)" fill="#202223"/></g><g transform="translate(388.877 339.001)"><g transform="translate(8.32 0)"><g transform="translate(0 0)"><path d="M130.557,8.566a9.557,9.557,0,1,0,9.557,9.557A9.567,9.567,0,0,0,130.557,8.566Zm18.115,7.1A18.022,18.022,0,0,0,133.017.007a1.078,1.078,0,0,0-.836.257,1.063,1.063,0,0,0-.359.8V5.354a1.063,1.063,0,0,0,.886,1.047,11.679,11.679,0,0,1,9.571,9.57,1.063,1.063,0,0,0,1.047.886h4.291a1.061,1.061,0,0,0,1.054-1.194Z" transform="translate(-121 0)" fill="#2bc6e3"/></g></g><g transform="translate(0 -0.001)"><g transform="translate(0 0)"><path d="M18,19.054h4.219a1.055,1.055,0,1,0,0-2.109H19.055V13.781a1.055,1.055,0,0,0-2.109,0V18A1.054,1.054,0,0,0,18,19.054Zm17.736.427a1.054,1.054,0,0,0-.791-.356H30.683a1.056,1.056,0,0,0-1.04.88,11.6,11.6,0,0,1-18.158,7.52,1.054,1.054,0,0,0-1.358.113L7.114,30.65a1.054,1.054,0,0,0,.1,1.578A17.742,17.742,0,0,0,18.2,36a17.95,17.95,0,0,0,17.79-15.69,1.06,1.06,0,0,0-.256-.829ZM8.477,24.515A11.6,11.6,0,0,1,16,6.357a1.056,1.056,0,0,0,.88-1.04V1.052A1.054,1.054,0,0,0,15.688.006,17.952,17.952,0,0,0,0,17.8a17.746,17.746,0,0,0,3.772,10.99,1.054,1.054,0,0,0,1.578.1l3.014-3.013a1.054,1.054,0,0,0,.113-1.357Z" transform="translate(0 0.001)" fill="#e2eef1"/></g></g></g></g></svg>