<svg xmlns="http://www.w3.org/2000/svg" xmlns:xlink="http://www.w3.org/1999/xlink" width="201" height="70" viewBox="0 0 201 70"><defs><filter id="a" x="3" y="1" width="198" height="69" filterUnits="userSpaceOnUse"><feOffset dy="3" input="SourceAlpha"/><feGaussianBlur stdDeviation="3" result="b"/><feFlood flood-opacity="0.051"/><feComposite operator="in" in2="b"/><feComposite in="SourceGraphic"/></filter></defs><g transform="translate(-1507 -817)"><g transform="translate(1507 817)"><circle cx="32.5" cy="32.5" r="32.5" transform="translate(6)" fill="#ff913d"/><path d="M10,0,20,8H0Z" transform="translate(0 43) rotate(-90)" fill="#ff913d"/><g transform="matrix(1, 0, 0, 1, 0, 0)" filter="url(#a)"><rect width="180" height="51" rx="25.5" transform="translate(12 7)" fill="#202223"/></g></g><g transform="translate(1518.702 832)"><g transform="translate(10.694)"><path d="M28.694,0a18,18,0,1,0,18,18.066A18.1,18.1,0,0,0,28.694,0Z" transform="translate(-10.694)" fill="#fe903c"/></g><g transform="translate(23.878 6.827)"><path d="M105.51,47.054a1.607,1.607,0,0,1-1.605-1.605,1.605,1.605,0,0,0-3.211,0,4.808,4.808,0,0,0,3.211,4.52v1.9a1.605,1.605,0,1,0,3.211,0v-1.9a4.8,4.8,0,0,0-1.605-9.337,1.605,1.605,0,1,1,1.605-1.605,1.605,1.605,0,1,0,3.211,0,4.808,4.808,0,0,0-3.211-4.52v-1.9a1.605,1.605,0,1,0-3.211,0v1.9a4.8,4.8,0,0,0,1.605,9.337,1.605,1.605,0,0,1,0,3.211Z" transform="translate(-100.694 -31)" fill="#fff"/></g></g></g></svg>