<svg xmlns="http://www.w3.org/2000/svg" width="24" height="16" viewBox="0 0 24 16">
  <g id="united-states-of-america" transform="translate(0.469 -85.019)">
    <rect id="Rectangle_2604" data-name="Rectangle 2604" width="24" height="16" transform="translate(-0.469 85.019)" fill="#f0f0f0"/>
    <g id="Group_1169" data-name="Group 1169" transform="translate(0 87.319)">
      <rect id="Rectangle_2605" data-name="Rectangle 2605" width="23.531" height="1.988" fill="#d80027"/>
      <rect id="Rectangle_2606" data-name="Rectangle 2606" width="23.531" height="1.988" transform="translate(0 3.904)" fill="#d80027"/>
      <rect id="Rectangle_2607" data-name="Rectangle 2607" width="23.531" height="1.988" transform="translate(0 7.807)" fill="#d80027"/>
      <rect id="Rectangle_2608" data-name="Rectangle 2608" width="23.531" height="1.988" transform="translate(0 11.711)" fill="#d80027"/>
    </g>
    <rect id="Rectangle_2609" data-name="Rectangle 2609" width="11.929" height="8.565" transform="translate(0 85.331)" fill="#2e52b2"/>
    <g id="Group_1170" data-name="Group 1170" transform="translate(1.212 86.707)">
      <path id="Path_1475" data-name="Path 1475" d="M83.177,160.624l-.192.591h-.621l.5.365-.192.591.5-.365.5.365-.192-.591.5-.365h-.621Z" transform="translate(-79.737 -158.491)" fill="#f0f0f0"/>
      <path id="Path_1476" data-name="Path 1476" d="M83.368,206.988l-.192-.591-.192.591h-.621l.5.365-.192.591.5-.365.5.365-.192-.591.5-.365Z" transform="translate(-79.737 -202.131)" fill="#f0f0f0"/>
      <path id="Path_1477" data-name="Path 1477" d="M27.006,206.988l-.192-.591-.192.591H26l.5.365-.192.591.5-.365.5.365-.192-.591.5-.365Z" transform="translate(-26.001 -202.131)" fill="#f0f0f0"/>
      <path id="Path_1478" data-name="Path 1478" d="M26.815,160.624l-.192.591H26l.5.365-.192.591.5-.365.5.365-.192-.591.5-.365h-.621Z" transform="translate(-26.001 -158.491)" fill="#f0f0f0"/>
      <path id="Path_1479" data-name="Path 1479" d="M83.177,114.85l-.192.591h-.621l.5.365-.192.591.5-.365.5.365-.192-.591.5-.365h-.621Z" transform="translate(-79.737 -114.85)" fill="#f0f0f0"/>
      <path id="Path_1480" data-name="Path 1480" d="M26.815,114.85l-.192.591H26l.5.365-.192.591.5-.365.5.365-.192-.591.5-.365h-.621Z" transform="translate(-26.001 -114.85)" fill="#f0f0f0"/>
      <path id="Path_1481" data-name="Path 1481" d="M139.539,160.624l-.192.591h-.621l.5.365-.192.591.5-.365.5.365-.192-.591.5-.365h-.621Z" transform="translate(-133.472 -158.491)" fill="#f0f0f0"/>
      <path id="Path_1482" data-name="Path 1482" d="M139.73,206.988l-.192-.591-.192.591h-.621l.5.365-.192.591.5-.365.5.365-.192-.591.5-.365Z" transform="translate(-133.472 -202.131)" fill="#f0f0f0"/>
      <path id="Path_1483" data-name="Path 1483" d="M196.093,206.988l-.192-.591-.192.591h-.621l.5.365-.192.591.5-.365.5.365-.192-.591.5-.365Z" transform="translate(-187.209 -202.131)" fill="#f0f0f0"/>
      <path id="Path_1484" data-name="Path 1484" d="M195.9,160.624l-.192.591h-.621l.5.365-.192.591.5-.365.5.365-.192-.591.5-.365h-.621Z" transform="translate(-187.209 -158.491)" fill="#f0f0f0"/>
      <path id="Path_1485" data-name="Path 1485" d="M139.539,114.85l-.192.591h-.621l.5.365-.192.591.5-.365.5.365-.192-.591.5-.365h-.621Z" transform="translate(-133.472 -114.85)" fill="#f0f0f0"/>
      <path id="Path_1486" data-name="Path 1486" d="M195.9,114.85l-.192.591h-.621l.5.365-.192.591.5-.365.5.365-.192-.591.5-.365h-.621Z" transform="translate(-187.209 -114.85)" fill="#f0f0f0"/>
    </g>
  </g>
</svg>
