<svg xmlns="http://www.w3.org/2000/svg" width="806" height="59.762" viewBox="0 0 806 59.762">
  <g id="enterprise" transform="translate(-556 -605.738)">
    <path id="Path_11263" data-name="Path 11263" d="M-42,0H755" transform="translate(603.5 632)" fill="none" stroke="#c5c5c5" stroke-linecap="round" stroke-width="1" stroke-dasharray="4"/>
    <g id="Group_8004" data-name="Group 8004" transform="translate(821 632)">
      <line id="Line_99" data-name="Line 99" y1="26" transform="translate(5)" fill="none" stroke="#c5c5c5" stroke-linecap="round" stroke-width="1" stroke-dasharray="4"/>
      <path id="Path_11265" data-name="Path 11265" d="M5,0l5,6H0Z" transform="translate(10 33.5) rotate(180)" fill="#c5c5c5"/>
    </g>
    <g id="Group_8005" data-name="Group 8005" transform="translate(1087 632)">
      <line id="Line_99-2" data-name="Line 99" y1="26" transform="translate(5)" fill="none" stroke="#573e92" stroke-linecap="round" stroke-width="1" stroke-dasharray="4"/>
      <path id="Path_11265-2" data-name="Path 11265" d="M5,0l5,6H0Z" transform="translate(10 33.5) rotate(180)" fill="#573e92"/>
    </g>
    <g id="Group_8006" data-name="Group 8006" transform="translate(556 632)">
      <line id="Line_99-3" data-name="Line 99" y1="26" transform="translate(5)" fill="none" stroke="#c5c5c5" stroke-linecap="round" stroke-width="1" stroke-dasharray="4"/>
      <path id="Path_11265-3" data-name="Path 11265" d="M5,0l5,6H0Z" transform="translate(10 33.5) rotate(180)" fill="#c5c5c5"/>
    </g>
    <path id="Line_99-4" data-name="Line 99" d="M0,25.762V0" transform="translate(1025.5 606.238)" fill="none" stroke="#573e92" stroke-linecap="round" stroke-width="1" stroke-dasharray="4"/>
    <path id="Path_10315" data-name="Path 10315" d="M448,0H380" transform="translate(645.75 632)" fill="none" stroke="#573e92" stroke-linecap="round" stroke-width="1" stroke-dasharray="4"/>
    <g id="Group_8007" data-name="Group 8007" transform="translate(1352 632)">
      <line id="Line_99-5" data-name="Line 99" y1="26" transform="translate(5)" fill="none" stroke="#c5c5c5" stroke-linecap="round" stroke-width="1" stroke-dasharray="4"/>
      <path id="Path_11265-4" data-name="Path 11265" d="M5,0l5,6H0Z" transform="translate(10 33.5) rotate(180)" fill="#c5c5c5"/>
    </g>
  </g>
</svg>
