<svg id="Espanol" xmlns="http://www.w3.org/2000/svg" width="18" height="13" viewBox="0 0 18 13">
  <path id="Path_12724" data-name="Path 12724" d="M.31,101.276H18v-13H0v13H.31Z" transform="translate(0 -88.276)" fill="#c8414b"/>
  <rect id="Rectangle_2667" data-name="Rectangle 2667" width="18" height="7.486" transform="translate(0 2.757)" fill="#ffd250"/>
  <path id="Path_12725" data-name="Path 12725" d="M208.968,217.827l.292-1.315a.194.194,0,0,0-.189-.236h-.206a.194.194,0,0,0-.189.236Z" transform="translate(-200.519 -211.32)" fill="#c8414b"/>
  <rect id="Rectangle_2668" data-name="Rectangle 2668" width="0.689" height="2.929" transform="translate(8.104 5.803)" fill="#f5f5f5"/>
  <rect id="Rectangle_2669" data-name="Rectangle 2669" width="1.034" height="0.345" transform="translate(7.932 5.473)" fill="#fab446"/>
  <g id="Group_2397" data-name="Group 2397" transform="translate(2.98 4.95)">
    <rect id="Rectangle_2670" data-name="Rectangle 2670" width="1.723" height="0.345" transform="translate(4.26 1.551)" fill="#c8414b"/>
    <path id="Path_12726" data-name="Path 12726" d="M204.068,274.345,203.034,274v-.345l1.034.345Z" transform="translate(-198.085 -271.416)" fill="#c8414b"/>
    <path id="Path_12727" data-name="Path 12727" d="M76.554,217.827l.292-1.315a.194.194,0,0,0-.189-.236h-.206a.194.194,0,0,0-.189.236Z" transform="translate(-76.257 -216.276)" fill="#c8414b"/>
  </g>
  <path id="Path_12728" data-name="Path 12728" d="M106.276,229.518a.345.345,0,0,0-.345.345v2.24c0,.419.391,1.206,1.723,1.206s1.723-.787,1.723-1.206v-2.24a.345.345,0,0,0-.345-.345Z" transform="translate(-101.792 -224.061)" fill="#f5f5f5"/>
  <g id="Group_2398" data-name="Group 2398" transform="translate(4.139 5.459)">
    <path id="Path_12729" data-name="Path 12729" d="M107.654,231.241h-1.723v-1.378a.345.345,0,0,1,.345-.345h1.378Z" transform="translate(-105.931 -229.518)" fill="#c8414b"/>
    <path id="Path_12730" data-name="Path 12730" d="M150.069,273.656h1.723v.862a.862.862,0,0,1-.862.862h0a.862.862,0,0,1-.862-.862Z" transform="translate(-148.346 -271.933)" fill="#c8414b"/>
  </g>
  <path id="Path_12731" data-name="Path 12731" d="M105.931,273.656h1.723v.862a.862.862,0,0,1-.862.862h0a.862.862,0,0,1-.862-.862Z" transform="translate(-101.793 -266.48)" fill="#fab446"/>
  <g id="Group_2399" data-name="Group 2399" transform="translate(4.483 7.176)">
    <path id="Path_12732" data-name="Path 12732" d="M132.758,275.2v-1.547h-.345v1.706A.851.851,0,0,0,132.758,275.2Z" transform="translate(-131.724 -273.656)" fill="#c8414b"/>
    <path id="Path_12733" data-name="Path 12733" d="M115.1,275.362v-1.706h-.345V275.2a.853.853,0,0,0,.345.162Z" transform="translate(-114.758 -273.656)" fill="#c8414b"/>
  </g>
  <rect id="Rectangle_2671" data-name="Rectangle 2671" width="1.034" height="0.345" transform="translate(4.483 6.499)" fill="#ffb441"/>
  <g id="Group_2400" data-name="Group 2400" transform="translate(4.483 5.813)">
    <rect id="Rectangle_2672" data-name="Rectangle 2672" width="1.034" height="0.345" fill="#fab446"/>
    <rect id="Rectangle_2673" data-name="Rectangle 2673" width="0.689" height="0.624" transform="translate(0.172 0.205)" fill="#fab446"/>
  </g>
  <rect id="Rectangle_2674" data-name="Rectangle 2674" width="0.689" height="2.929" transform="translate(2.931 5.803)" fill="#f5f5f5"/>
  <g id="Group_2401" data-name="Group 2401" transform="translate(2.759 5.459)">
    <rect id="Rectangle_2675" data-name="Rectangle 2675" width="1.034" height="0.345" transform="translate(0 3.102)" fill="#fab446"/>
    <rect id="Rectangle_2676" data-name="Rectangle 2676" width="1.034" height="0.345" fill="#fab446"/>
  </g>
  <rect id="Rectangle_2677" data-name="Rectangle 2677" width="1.378" height="0.345" transform="translate(2.585 8.893)" fill="#5064aa"/>
  <rect id="Rectangle_2678" data-name="Rectangle 2678" width="1.034" height="0.345" transform="translate(8.104 8.551)" fill="#fab446"/>
  <rect id="Rectangle_2679" data-name="Rectangle 2679" width="1.378" height="0.345" transform="translate(7.76 8.893)" fill="#5064aa"/>
  <rect id="Rectangle_2680" data-name="Rectangle 2680" width="2.068" height="0.345" transform="translate(4.828 5.131)" fill="#fab446"/>
  <rect id="Rectangle_2681" data-name="Rectangle 2681" width="0.345" height="1.034" transform="translate(5.69 4.103)" fill="#ffb441"/>
  <g id="Group_2402" data-name="Group 2402" transform="translate(4.311 3.589)">
    <path id="Path_12734" data-name="Path 12734" d="M128.517,182a.517.517,0,1,1,.517-.517A.517.517,0,0,1,128.517,182Zm0-.689a.172.172,0,1,0,.172.172.172.172,0,0,0-.172-.172Z" transform="translate(-127.311 -180.967)" fill="#f5f5f5"/>
    <path id="Path_12735" data-name="Path 12735" d="M146.173,182a.517.517,0,1,1,.517-.517A.517.517,0,0,1,146.173,182Zm0-.689a.172.172,0,1,0,.172.172.172.172,0,0,0-.172-.172Z" transform="translate(-144.278 -180.967)" fill="#f5f5f5"/>
    <path id="Path_12736" data-name="Path 12736" d="M163.828,190.829a.517.517,0,1,1,.517-.517A.517.517,0,0,1,163.828,190.829Zm0-.689a.172.172,0,1,0,.172.172.172.172,0,0,0-.172-.172Z" transform="translate(-161.243 -189.45)" fill="#f5f5f5"/>
    <path id="Path_12737" data-name="Path 12737" d="M110.862,190.829a.517.517,0,1,1,.517-.517A.517.517,0,0,1,110.862,190.829Zm0-.689a.172.172,0,1,0,.172.172A.172.172,0,0,0,110.862,190.14Z" transform="translate(-110.345 -189.45)" fill="#f5f5f5"/>
  </g>
  <path id="Path_12738" data-name="Path 12738" d="M159.585,282.829V283a.173.173,0,0,1-.345,0v-.172h.345m.345-.345H158.9V283a.517.517,0,1,0,1.034,0v-.517Z" transform="translate(-152.688 -274.962)" fill="#fab446"/>
  <path id="Path_12739" data-name="Path 12739" d="M163.655,239.379h0a.345.345,0,0,1-.345-.345v-.345a.345.345,0,0,1,.345-.345h0a.345.345,0,0,1,.345.345v.345A.345.345,0,0,1,163.655,239.379Z" transform="translate(-156.93 -232.533)" fill="#ffa0d2"/>
  <circle id="Ellipse_104" data-name="Ellipse 104" cx="0.517" cy="0.517" r="0.517" transform="translate(5.345 6.667)" fill="#5064aa"/>
  <rect id="Rectangle_2682" data-name="Rectangle 2682" width="0.345" height="1.034" transform="translate(5.69 3.419)" fill="#fab446"/>
  <path id="Path_12740" data-name="Path 12740" d="M115.1,195.242l-.345-.345.2-.2a1.664,1.664,0,0,1,1.177-.487h0a1.664,1.664,0,0,1,1.177.487l.2.2-.345.345Z" transform="translate(-110.274 -190.105)" fill="#c8414b"/>
  <g id="Group_2403" data-name="Group 2403" transform="translate(5.001 4.617)">
    <circle id="Ellipse_105" data-name="Ellipse 105" cx="0.172" cy="0.172" r="0.172" transform="translate(0.689 0)" fill="#ffd250"/>
    <circle id="Ellipse_106" data-name="Ellipse 106" cx="0.172" cy="0.172" r="0.172" transform="translate(0 0)" fill="#ffd250"/>
    <circle id="Ellipse_107" data-name="Ellipse 107" cx="0.172" cy="0.172" r="0.172" transform="translate(1.378 0)" fill="#ffd250"/>
  </g>
  <g id="Group_2404" data-name="Group 2404" transform="translate(2.759 6.494)">
    <rect id="Rectangle_2683" data-name="Rectangle 2683" width="1.723" height="0.345" fill="#c8414b"/>
    <path id="Path_12741" data-name="Path 12741" d="M70.621,274.345,71.655,274v-.345L70.621,274Z" transform="translate(-70.621 -272.967)" fill="#c8414b"/>
  </g>
</svg>
