<svg xmlns="http://www.w3.org/2000/svg" width="36" height="42.372" viewBox="0 0 36 42.372">
  <g id="Group_2034" data-name="Group 2034" transform="translate(-3.427 -1.476)">
    <line id="Line_60" data-name="Line 60" y2="14" transform="translate(4.427 17.821)" fill="none" stroke="#fff" stroke-linecap="round" stroke-linejoin="round" stroke-width="2"/>
    <line id="Line_61" data-name="Line 61" y2="14" transform="translate(38.427 17.821)" fill="none" stroke="#fff" stroke-linecap="round" stroke-linejoin="round" stroke-width="2"/>
    <path id="Path_1445" data-name="Path 1445" d="M7,15.172H28.426V33.047a2.19,2.19,0,0,1-2.143,2.234H9.143A2.19,2.19,0,0,1,7,33.047V15.172A10.95,10.95,0,0,1,17.713,4,10.95,10.95,0,0,1,28.426,15.172" transform="translate(3.703 1.222)" fill="none" stroke="#fff" stroke-linecap="round" stroke-linejoin="round" stroke-width="2"/>
    <line id="Line_62" data-name="Line 62" x2="1.834" y2="4.586" transform="translate(12.924 2.848)" fill="none" stroke="#fff" stroke-linecap="round" stroke-linejoin="round" stroke-width="2"/>
    <line id="Line_63" data-name="Line 63" x1="2.752" y2="4.586" transform="translate(28.077 2.848)" fill="none" stroke="#fff" stroke-linecap="round" stroke-linejoin="round" stroke-width="2"/>
    <line id="Line_64" data-name="Line 64" y2="6.421" transform="translate(14.724 36.427)" fill="none" stroke="#fff" stroke-linecap="round" stroke-linejoin="round" stroke-width="2"/>
    <line id="Line_65" data-name="Line 65" y2="6.421" transform="translate(28.13 36.427)" fill="none" stroke="#fff" stroke-linecap="round" stroke-linejoin="round" stroke-width="2"/>
    <g id="Ellipse_80" data-name="Ellipse 80" transform="translate(15.427 9.958)" fill="#fff" stroke="#fff" stroke-width="1">
      <circle cx="1.5" cy="1.5" r="1.5" stroke="none"/>
      <circle cx="1.5" cy="1.5" r="1" fill="none"/>
    </g>
    <g id="Ellipse_81" data-name="Ellipse 81" transform="translate(24.427 9.958)" fill="#fff" stroke="#fff" stroke-width="1">
      <circle cx="1.5" cy="1.5" r="1.5" stroke="none"/>
      <circle cx="1.5" cy="1.5" r="1" fill="none"/>
    </g>
  </g>
</svg>
