<svg xmlns="http://www.w3.org/2000/svg" width="41.295" height="29.53" viewBox="0 0 41.295 29.53">
  <path id="Shape_603" data-name="Shape 603" d="M1102.5,3070.594h-34.035a3.64,3.64,0,0,1-3.63-3.642v-22.247a3.639,3.639,0,0,1,3.63-3.642H1102.5a3.639,3.639,0,0,1,3.63,3.641v22.247A3.64,3.64,0,0,1,1102.5,3070.594Zm1.209-25.888a1.213,1.213,0,0,0-1.209-1.213h-34.035a1.213,1.213,0,0,0-1.209,1.213v2.381h36.454Zm0,4.808h-36.454v17.439a1.214,1.214,0,0,0,1.209,1.213H1102.5a1.214,1.214,0,0,0,1.209-1.214Zm-8.729,13.619a1.212,1.212,0,0,1-1.21-1.213v-8.005a1.211,1.211,0,1,1,2.419,0v8a1.212,1.212,0,0,1-1.2,1.209Zm-6.332-3.516h-1.96v2.3a1.211,1.211,0,1,1-2.419,0v-8a1.212,1.212,0,0,1,1.209-1.214h3.166a3.462,3.462,0,1,1,0,6.923Zm0-4.494h-1.96v2.066h1.96a1.034,1.034,0,0,0,0-2.067Zm-7.258,8a1.213,1.213,0,0,1-1.21-1.214v-2.3h-2.985v2.3a1.211,1.211,0,1,1-2.419,0v-5.3a3.913,3.913,0,0,1,7.825,0v5.3a1.212,1.212,0,0,1-1.208,1.214Zm-1.21-6.512a1.493,1.493,0,1,0-2.987,0h0v.568h2.986Z" transform="translate(-1064.834 -3041.064)" fill="#fff"/>
</svg>
