<svg xmlns="http://www.w3.org/2000/svg" width="36.645" height="30.741" viewBox="0 0 36.645 30.741">
  <path id="Shape_608" data-name="Shape 608" d="M1263.19,3040.51v-.053H1230.5v.053a2.169,2.169,0,0,0-1.975,1.945v21.59a2.142,2.142,0,0,0,.286,1.08,2,2,0,0,0,1.865,1.1h11.8v2.99h-2.242a.992.992,0,1,0,0,1.985h13.214a.992.992,0,0,0,0-1.985h-2.241v-2.99h11.8a2,2,0,0,0,1.865-1.1,2.185,2.185,0,0,0,.3-1.08v-21.589A2.219,2.219,0,0,0,1263.19,3040.51Zm0,2.126v21.409c0,.126-.054.181-.179.181h-32.326c-.125,0-.179-.054-.179-.181v-21.589h32.685Z" transform="translate(-1228.53 -3040.458)" fill="#fff"/>
</svg>
