<svg xmlns="http://www.w3.org/2000/svg" width="34" height="42" viewBox="0 0 34 42">
  <g id="Group_2035" data-name="Group 2035" transform="translate(-591 -4791)">
    <path id="Path_1446" data-name="Path 1446" d="M14.143,7.009C7.286,7.009,5,13.612,5,19.114c0,6.6,4.571,16.507,9.143,16.507,2.487-.1,3.838-1.1,6.857-1.1,3,0,3.429,1.1,6.857,1.1s9.143-6.6,9.143-11c-.064-.022-5.65-.887-5.714-6.6-.043-4.776,5.522-6.5,5.714-6.6-2.338-3.284-6.745-4.32-8-4.4-3.275-.244-6.469,2.2-8,2.2C19.446,9.21,16.657,7.009,14.143,7.009Z" transform="translate(587 4796.379)" fill="none" stroke="#fff" stroke-linecap="round" stroke-linejoin="round" stroke-width="2"/>
    <path id="Path_1447" data-name="Path 1447" d="M12,6.556A4.556,4.556,0,0,0,16.556,2,4.556,4.556,0,0,0,12,6.556" transform="translate(596.009 4790)" fill="none" stroke="#fff" stroke-linecap="round" stroke-linejoin="round" stroke-width="2"/>
  </g>
</svg>
