<svg xmlns="http://www.w3.org/2000/svg" width="40" height="40" viewBox="0 0 40 40">
  <path id="iconmonstr-wordpress-1" d="M4.328,13.017,12.513,35.44A17.162,17.162,0,0,1,4.328,13.017Zm27.253,6.117A9.034,9.034,0,0,0,30.167,14.4c-.868-1.415-1.685-2.61-1.685-4.025a2.948,2.948,0,0,1,3.1-3.032,17.155,17.155,0,0,0-25.92,3.232,47.4,47.4,0,0,0,5.677-.2.708.708,0,0,1,.11,1.412s-.93.108-1.963.163l6.248,18.583,3.755-11.26-2.673-7.323c-.925-.055-1.8-.163-1.8-.163a.709.709,0,0,1,.108-1.413,48.586,48.586,0,0,0,9.092,0,.709.709,0,0,1,.11,1.413s-.932.108-1.963.163l6.2,18.442,1.712-5.718a20.768,20.768,0,0,0,1.3-5.545ZM20.3,21.5,15.153,36.458A17.177,17.177,0,0,0,25.7,36.185c-.143-.232-5.3-14.428-5.4-14.685Zm14.753-9.732a15.4,15.4,0,0,1-1.188,7.91L28.625,34.83a17.16,17.16,0,0,0,6.43-23.062ZM40,20A20,20,0,1,1,20,0,20.023,20.023,0,0,1,40,20Zm-.917,0A19.083,19.083,0,1,0,20,39.083,19.106,19.106,0,0,0,39.083,20Z" fill="#fff"/>
</svg>
