<svg xmlns="http://www.w3.org/2000/svg" width="22.004" height="22" viewBox="0 0 22.004 22">
  <path id="global" d="M-205.223,736.519a16.827,16.827,0,0,1-3.265-.46c.168-.4.351-.79.547-1.157a6.356,6.356,0,0,1,2.725-2.943Zm0,1.482v4.213h-4.568a18.757,18.757,0,0,1,.795-4.761,18.387,18.387,0,0,0,3.777.549Zm0,5.694v4.213a18.268,18.268,0,0,0-3.772.548,18.757,18.757,0,0,1-.795-4.761Zm0,5.7v4.565a6.361,6.361,0,0,1-2.725-2.943c-.2-.366-.379-.754-.547-1.157a16.857,16.857,0,0,1,3.275-.468Zm1.463,0a16.886,16.886,0,0,1,3.268.46c-.168.4-.351.79-.547,1.157a6.374,6.374,0,0,1-2.725,2.943Zm0-1.482V743.7h4.572a18.856,18.856,0,0,1-.795,4.761,18.309,18.309,0,0,0-3.774-.548Zm0-5.694V738a18.282,18.282,0,0,0,3.772-.548,18.857,18.857,0,0,1,.795,4.761Zm0-5.7v-4.564a6.367,6.367,0,0,1,2.725,2.943c.2.366.379.754.547,1.157a16.988,16.988,0,0,1-3.268.464Zm4.007-2.328a11.259,11.259,0,0,0-1.184-1.8,11.011,11.011,0,0,1,3.9,2.353,13.863,13.863,0,0,1-2.043.894,15.294,15.294,0,0,0-.673-1.446Zm-9.478,0a14.81,14.81,0,0,0-.681,1.446,13.812,13.812,0,0,1-2.043-.894,11,11,0,0,1,3.912-2.353,11.157,11.157,0,0,0-1.184,1.8Zm-1.169,2.839a20.016,20.016,0,0,0-.856,5.184h-4.234a11.181,11.181,0,0,1,2.5-6.361A14.955,14.955,0,0,0-210.4,737.031Zm-.856,6.664a20.017,20.017,0,0,0,.856,5.184,14.939,14.939,0,0,0-2.587,1.176,11.181,11.181,0,0,1-2.5-6.361Zm1.352,6.576a14.813,14.813,0,0,0,.681,1.446,11.318,11.318,0,0,0,1.18,1.806,11,11,0,0,1-3.9-2.353,13.648,13.648,0,0,1,2.041-.9Zm10.156,1.446a15.358,15.358,0,0,0,.681-1.446,13.754,13.754,0,0,1,2.043.894,11.041,11.041,0,0,1-3.911,2.359,11.351,11.351,0,0,0,1.185-1.8Zm1.173-2.839a20.066,20.066,0,0,0,.856-5.184h4.233a11.181,11.181,0,0,1-2.5,6.361,15.027,15.027,0,0,0-2.593-1.175Zm.856-6.664a20.066,20.066,0,0,0-.856-5.184,15.018,15.018,0,0,0,2.587-1.176,11.181,11.181,0,0,1,2.5,6.361Z" transform="translate(215.49 -731.955)" fill="#29cf8e"/>
</svg>
