<svg id="all_mistake_icon" data-name="all mistake icon" xmlns="http://www.w3.org/2000/svg" width="18.606" height="12.104" viewBox="0 0 18.606 12.104">
  <path id="Path_86" data-name="Path 86" d="M1141.568,994.027h12.508a.775.775,0,0,0,0-1.55h-12.508a.775.775,0,1,0,0,1.55Z" transform="translate(-1136.245 -992.477)" fill="#fff"/>
  <path id="Path_87" data-name="Path 87" d="M1154.076,1001.276h-12.508a.775.775,0,1,0,0,1.55h12.508a.775.775,0,0,0,0-1.55Z" transform="translate(-1136.245 -996.005)" fill="#fff"/>
  <path id="Path_88" data-name="Path 88" d="M1154.076,1010.076h-12.508a.775.775,0,1,0,0,1.55h12.508a.775.775,0,0,0,0-1.55Z" transform="translate(-1136.245 -999.534)" fill="#fff"/>
  <path id="Path_89" data-name="Path 89" d="M1135.7,992.483a.778.778,0,1,0,.775.781v-.011A.771.771,0,0,0,1135.7,992.483Z" transform="translate(-1134.927 -992.478)" fill="#fff"/>
  <path id="Path_90" data-name="Path 90" d="M1135.7,1001.284a.778.778,0,1,0,.775.781v-.012A.77.77,0,0,0,1135.7,1001.284Z" transform="translate(-1134.927 -996.007)" fill="#fff"/>
  <path id="Path_91" data-name="Path 91" d="M1135.7,1010.083a.778.778,0,1,0,.775.781v-.012A.77.77,0,0,0,1135.7,1010.083Z" transform="translate(-1134.927 -999.535)" fill="#fff"/>
</svg>
