<svg xmlns="http://www.w3.org/2000/svg" width="23.289" height="16" viewBox="0 0 23.289 16">
  <g id="korean" transform="translate(-1529 -4370)">
    <path id="Path_2053" data-name="Path 2053" d="M22.889,104.278H.4a.41.41,0,0,1-.4-.419V88.7a.41.41,0,0,1,.4-.419H22.889a.41.41,0,0,1,.4.419v15.159a.43.43,0,0,1-.116.3.391.391,0,0,1-.284.124Z" transform="translate(1529 4281.722)" fill="#f0f0f0"/>
    <g id="south-korea" transform="translate(1535 4371.765)">
      <path id="Path_2071" data-name="Path 2071" d="M172.726,169.842a2.91,2.91,0,0,1-5.769,0,2.885,2.885,0,1,1,5.769,0Z" transform="translate(-163.977 -163.628)" fill="#d80027"/>
      <path id="Path_2072" data-name="Path 2072" d="M172.726,256a2.885,2.885,0,1,1-5.769,0" transform="translate(-163.977 -249.644)" fill="#0052b4"/>
      <rect id="Rectangle_31" data-name="Rectangle 31" width="1.082" height="0.721" transform="translate(8.924 8.957) rotate(-45)"/>
      <rect id="Rectangle_32" data-name="Rectangle 32" width="1.082" height="0.721" transform="translate(7.649 10.431) rotate(-45)"/>
      <rect id="Rectangle_33" data-name="Rectangle 33" width="1.082" height="0.721" transform="translate(10.454 10.685) rotate(-45)"/>
      <rect id="Rectangle_34" data-name="Rectangle 34" width="1.082" height="0.721" transform="translate(9.179 11.961) rotate(-45)"/>
      <rect id="Rectangle_35" data-name="Rectangle 35" width="1.082" height="0.721" transform="translate(9.689 9.776) rotate(-45)"/>
      <rect id="Rectangle_36" data-name="Rectangle 36" width="1.082" height="0.721" transform="translate(8.414 11.196) rotate(-45)"/>
      <rect id="Rectangle_37" data-name="Rectangle 37" width="2.885" height="0.721" transform="translate(10.454 3.315) rotate(-135)"/>
      <rect id="Rectangle_38" data-name="Rectangle 38" width="1.082" height="0.721" transform="translate(8.414 2.805) rotate(-135)"/>
      <rect id="Rectangle_39" data-name="Rectangle 39" width="1.082" height="0.721" transform="translate(9.689 4.279) rotate(-135)"/>
      <rect id="Rectangle_40" data-name="Rectangle 40" width="1.082" height="0.721" transform="translate(9.944 1.275) rotate(-135)"/>
      <rect id="Rectangle_41" data-name="Rectangle 41" width="1.082" height="0.721" transform="translate(11.219 2.55) rotate(-135)"/>
      <rect id="Rectangle_42" data-name="Rectangle 42" width="2.885" height="0.721" transform="translate(0.51 9.921) rotate(45)"/>
      <rect id="Rectangle_43" data-name="Rectangle 43" width="1.082" height="0.721" transform="translate(2.55 10.431) rotate(45)"/>
      <rect id="Rectangle_44" data-name="Rectangle 44" width="1.082" height="0.721" transform="translate(1.275 9.011) rotate(45)"/>
      <rect id="Rectangle_45" data-name="Rectangle 45" width="2.885" height="0.721" transform="translate(2.04 8.391) rotate(45)"/>
      <rect id="Rectangle_46" data-name="Rectangle 46" width="2.885" height="0.721" transform="translate(2.55 0.51) rotate(135)"/>
      <rect id="Rectangle_47" data-name="Rectangle 47" width="2.885" height="0.721" transform="translate(3.314 1.275) rotate(135)"/>
      <rect id="Rectangle_48" data-name="Rectangle 48" width="2.885" height="0.721" transform="translate(4.08 2.04) rotate(135)"/>
    </g>
  </g>
</svg>
