<svg xmlns="http://www.w3.org/2000/svg" xmlns:xlink="http://www.w3.org/1999/xlink" width="198" height="70" viewBox="0 0 198 70"><defs><filter id="a" x="0" y="1" width="198" height="69" filterUnits="userSpaceOnUse"><feOffset dy="3" input="SourceAlpha"/><feGaussianBlur stdDeviation="3" result="b"/><feFlood flood-opacity="0.051"/><feComposite operator="in" in2="b"/><feComposite in="SourceGraphic"/></filter></defs><g transform="translate(-231 -817)"><circle cx="32.5" cy="32.5" r="32.5" transform="translate(361 817)" fill="#c81507"/><g transform="matrix(1, 0, 0, 1, 231, 817)" filter="url(#a)"><rect width="180" height="51" rx="25.5" transform="translate(9 7)" fill="#fff"/></g><g transform="translate(373.311 833)"><path d="M20.1,0a9.527,9.527,0,1,0,9.486,9.563A9.56,9.56,0,0,0,20.1,0ZM1.054,21.273A1.054,1.054,0,0,0,0,22.328V32.945A1.054,1.054,0,0,0,1.054,34H5.27a1.054,1.054,0,0,0,1.054-1.055V31.767l1.054-2.1V23.205L6.324,21.273Z" fill="#c81507"/><g transform="translate(6.239 2.186)"><path d="M103.823,41.545a1.058,1.058,0,0,1-1.058-1.054,1.058,1.058,0,0,0-2.116,0,3.159,3.159,0,0,0,2.116,2.969v1.249a1.058,1.058,0,0,0,2.116,0V43.46a3.154,3.154,0,0,0-1.058-6.133,1.054,1.054,0,1,1,1.058-1.054,1.058,1.058,0,0,0,2.116,0,3.159,3.159,0,0,0-2.116-2.969V32.054a1.058,1.058,0,0,0-2.116,0V33.3a3.154,3.154,0,0,0,1.058,6.133,1.054,1.054,0,1,1,0,2.109ZM119.451,50.4l0,0a3.063,3.063,0,0,0-4.229-.088l-6.449,5.834a1.058,1.058,0,0,1-.959.248l-9.479-2.236a1.054,1.054,0,1,1,.488-2.051l6.584,1.553a3.059,3.059,0,0,0,3.665-2.2l.014-.054a1.053,1.053,0,0,0-.771-1.276l-8.463-2.109a1.028,1.028,0,0,0-.512,0L90,50.09V60.581l17.922,2.225a1.061,1.061,0,0,0,.88-.3L119.451,51.89a1.052,1.052,0,0,0,0-1.491Z" transform="translate(-90 -31)" fill="#f5c4c4"/></g></g></g></svg>