<svg xmlns="http://www.w3.org/2000/svg" xmlns:xlink="http://www.w3.org/1999/xlink" width="189" height="69" viewBox="0 0 189 69"><defs><filter id="a" x="0" y="1" width="186" height="68" filterUnits="userSpaceOnUse"><feOffset dy="3" input="SourceAlpha"/><feGaussianBlur stdDeviation="3" result="b"/><feFlood flood-opacity="0.051"/><feComposite operator="in" in2="b"/><feComposite in="SourceGraphic"/></filter></defs><g transform="translate(-253 -572)"><g transform="translate(939 -789)"><g transform="translate(-568 1361)"><circle cx="32.5" cy="32.5" r="32.5" fill="#faaf11"/><path d="M10,0,20,8H0Z" transform="translate(71 23) rotate(90)" fill="#faaf11"/></g><g transform="matrix(1, 0, 0, 1, -686, 1361)" filter="url(#a)"><rect width="168" height="50" rx="25" transform="translate(9 7)" fill="#fff"/></g></g><g transform="translate(390.088 555)"><g transform="translate(2.181 34)"><g transform="translate(0 0)"><path d="M195.043,7.453,194.111,0h-11.18A.923.923,0,0,0,182,.932V27.018a.923.923,0,0,0,.932.932h18.633a.923.923,0,0,0,.932-.932V8.385Z" transform="translate(-182)" fill="#faaf11"/></g><g transform="translate(3.727 0)"><path d="M251.316,8.385h7.453a.874.874,0,0,0-.28-.652L251.037.28a.874.874,0,0,0-.652-.28V7.453A.932.932,0,0,0,251.316,8.385Zm2.795,4.658h-11.18a.932.932,0,1,0,0,1.863h11.18a.932.932,0,0,0,0-1.863Zm0,5.59h-11.18a.932.932,0,1,0,0,1.863h11.18a.932.932,0,0,0,0-1.863Z" transform="translate(-242 0)" fill="#f1e7d4"/></g></g></g></g></svg>