<svg xmlns="http://www.w3.org/2000/svg" width="26.4" height="26.4" viewBox="0 0 26.4 26.4"><g transform="translate(0.2 0.2)" style="isolation:isolate"><g transform="translate(6.366 6.366)"><path d="M86.513,77.155A6.657,6.657,0,0,0,81.834,75.2a6.512,6.512,0,0,0-4.679,1.955,6.634,6.634,0,0,0,4.679,11.313,6.513,6.513,0,0,0,4.679-1.955,6.657,6.657,0,0,0,1.955-4.679A6.513,6.513,0,0,0,86.513,77.155Zm-1.257,8.1a4.89,4.89,0,1,1,1.4-3.422A4.83,4.83,0,0,1,85.256,85.256Z" transform="translate(-75.2 -75.2)" stroke="#000" stroke-width="0.4"/></g><g transform="translate(21.496 12.092)"><path d="M254.4,140.8h-2.689a.908.908,0,1,0,0,1.816H254.4a.908.908,0,0,0,0-1.816Z" transform="translate(-250.8 -140.8)" stroke="#000" stroke-width="0.4"/></g><g transform="translate(12.092 21.496)"><path d="M141.708,250.8a.924.924,0,0,0-.908.908V254.4a.908.908,0,1,0,1.816,0v-2.689A.924.924,0,0,0,141.708,250.8Z" transform="translate(-140.8 -250.8)" stroke="#000" stroke-width="0.4"/></g><g transform="translate(18.685 18.685)"><path d="M222.039,220.782l-1.92-1.92a.889.889,0,1,0-1.257,1.257l1.92,1.92a.889.889,0,0,0,1.257-1.257Z" transform="translate(-218.6 -218.6)" stroke="#000" stroke-width="0.4"/></g><g transform="translate(12.092)"><path d="M141.708,0a.924.924,0,0,0-.908.908V3.6a.908.908,0,0,0,1.816,0V.908A.924.924,0,0,0,141.708,0Z" transform="translate(-140.8)" stroke="#000" stroke-width="0.4"/></g><g transform="translate(18.72 3.614)"><path d="M222.439,41.662a.885.885,0,0,0-1.257,0l-1.92,1.92a.889.889,0,0,0,1.257,1.257l1.92-1.92A.885.885,0,0,0,222.439,41.662Z" transform="translate(-219 -41.4)" stroke="#000" stroke-width="0.4"/></g><g transform="translate(0 12.092)"><path d="M3.6,140.8H.908a.924.924,0,0,0-.908.908.9.9,0,0,0,.908.908H3.6a.908.908,0,0,0,0-1.816Z" transform="translate(0 -140.8)" stroke="#000" stroke-width="0.4"/></g><g transform="translate(3.579 18.685)"><path d="M44.439,218.862a.885.885,0,0,0-1.257,0l-1.92,1.92a.889.889,0,0,0,1.257,1.257l1.92-1.92A.885.885,0,0,0,44.439,218.862Z" transform="translate(-41 -218.6)" stroke="#000" stroke-width="0.4"/></g><g transform="translate(3.579 3.614)"><path d="M44.439,43.582l-1.92-1.92a.889.889,0,0,0-1.257,1.257l1.92,1.92a.889.889,0,0,0,1.257-1.257Z" transform="translate(-41 -41.4)" stroke="#000" stroke-width="0.4"/></g></g></svg>