<svg xmlns="http://www.w3.org/2000/svg" xmlns:xlink="http://www.w3.org/1999/xlink" width="201" height="70" viewBox="0 0 201 70"><defs><filter id="a" x="3" y="1" width="198" height="69" filterUnits="userSpaceOnUse"><feOffset dy="3" input="SourceAlpha"/><feGaussianBlur stdDeviation="3" result="b"/><feFlood flood-opacity="0.051"/><feComposite operator="in" in2="b"/><feComposite in="SourceGraphic"/></filter></defs><g transform="translate(-1492 -325)"><g transform="translate(1492 325)"><circle cx="32.5" cy="32.5" r="32.5" transform="translate(6)" fill="#573e92"/><path d="M10,0,20,8H0Z" transform="translate(0 43) rotate(-90)" fill="#573e92"/></g><g transform="matrix(1, 0, 0, 1, 1492, 325)" filter="url(#a)"><rect width="180" height="51" rx="25.5" transform="translate(12 7)" fill="#fff"/></g><g transform="translate(1521.161 302.002)"><g transform="translate(0 44.377)"><g transform="translate(0 0)"><path d="M12.642,86v14.645H32.25V86Zm8.187,8.683H18.387a1.222,1.222,0,0,1-1.22-1.22V91.02a1.22,1.22,0,0,0-1.22-1.22H3.661A3.665,3.665,0,0,0,0,93.461v9.763a3.665,3.665,0,0,0,3.661,3.661H5.678l4.524,4.524a1.22,1.22,0,0,0,2.083-.863v-3.661h6.1a3.665,3.665,0,0,0,3.661-3.661V95.9A1.22,1.22,0,0,0,20.828,94.681Z" transform="translate(0 -85.998)" fill="#d7c5ff"/></g></g><g transform="translate(8.262 39.998)"><path d="M204.269,31H184.661A3.656,3.656,0,0,0,181,34.659V49.3a3.656,3.656,0,0,0,3.661,3.661h10.984v3.661a1.217,1.217,0,0,0,.757,1.123,1.168,1.168,0,0,0,1.318-.269l4.54-4.515h2.01A3.656,3.656,0,0,0,207.93,49.3V34.659A3.656,3.656,0,0,0,204.269,31Zm-4.963,17.086H187.1a1.22,1.22,0,0,1,0-2.441h12.2a1.22,1.22,0,1,1,0,2.441Zm2.441-4.882H187.1a1.22,1.22,0,0,1,0-2.441h14.645a1.223,1.223,0,1,1,0,2.441Zm0-4.882h-12.2a1.22,1.22,0,0,1,0-2.441h12.2a1.223,1.223,0,1,1,0,2.441Z" transform="translate(-181 -30.998)" fill="#553c8f"/></g></g></g></svg>