<svg xmlns="http://www.w3.org/2000/svg" width="139.001" height="123.249" viewBox="0 0 139.001 123.249"><g transform="translate(-67.049 -34.03)"><path d="M117.508,44.811l-47.3,78.837a22.206,22.206,0,0,0,19.04,33.631h47.3V34.03A22.033,22.033,0,0,0,117.508,44.811Z" transform="translate(0 0)" fill="#ff4f50"/><path d="M166.076,123.647l-47.3-78.837A22.033,22.033,0,0,0,99.734,34.03V157.279h47.3a22.206,22.206,0,0,0,19.04-33.631Z" transform="translate(36.816 0)" fill="#da3749"/><path d="M122.076,44.6l-47.3,78.834a8.3,8.3,0,0,0,7.117,12.573h47.3V40.569A8.23,8.23,0,0,0,122.076,44.6Z" transform="translate(7.355 7.366)" fill="#fff"/><path d="M154.155,123.435,106.853,44.6a8.228,8.228,0,0,0-7.119-4.032v95.44h47.3A8.3,8.3,0,0,0,154.155,123.435Z" transform="translate(36.816 7.366)" fill="#e6e6e6"/><g transform="translate(130.149 68.901)"><path d="M98.968,50.429a2.245,2.245,0,0,0-2.243,2.3L97.9,99.906a2.242,2.242,0,0,0,2.243,2.188h2.977V50.429Z" transform="translate(-96.724 -50.429)" fill="#4f4e4f"/><path d="M97.3,81.967a5.166,5.166,0,0,0,5.167,5.167V76.8A5.167,5.167,0,0,0,97.3,81.967Z" transform="translate(-96.07 -20.722)" fill="#4f4e4f"/></g><g transform="translate(136.55 68.901)"><path d="M103.891,50.429H99.734v51.665h2.977a2.242,2.242,0,0,0,2.243-2.188l1.18-47.176A2.245,2.245,0,0,0,103.891,50.429Z" transform="translate(-99.734 -50.429)" fill="#404041"/><path d="M99.734,76.8V87.134a5.166,5.166,0,1,0,0-10.332Z" transform="translate(-99.734 -20.722)" fill="#404041"/></g></g></svg>