<svg xmlns="http://www.w3.org/2000/svg" width="106" height="27.089" viewBox="0 0 106 27.089"><g transform="translate(0 -187.6)"><path d="M356.117,221.2H350.4a1.118,1.118,0,0,0-.841.673L347.2,236.679a.446.446,0,0,0,.5.5h3.029a.446.446,0,0,0,.5-.5l.673-4.206a.77.77,0,0,1,.841-.673H354.6q5.8,0,6.562-5.552a4.41,4.41,0,0,0-.673-3.7,6.786,6.786,0,0,0-4.375-1.346m.673,5.552c-.337,2.019-1.851,2.019-3.365,2.019h-1.01l.673-3.87c0-.168.168-.337.5-.337h.337c1.009,0,2.019,0,2.524.673.337.168.337.673.337,1.514" transform="translate(-274.178 -26.533)" fill="#139ad6"/><g transform="translate(31.8 194.667)"><path d="M160.117,221.2H154.4a1.118,1.118,0,0,0-.841.673L151.2,236.679a.446.446,0,0,0,.5.5H154.4a1.118,1.118,0,0,0,.841-.673l.673-4.038a.77.77,0,0,1,.841-.673H158.6q5.8,0,6.562-5.552a4.41,4.41,0,0,0-.673-3.7,6.467,6.467,0,0,0-4.375-1.346m.673,5.552c-.337,2.019-1.851,2.019-3.365,2.019h-.841l.673-3.87c0-.168.168-.337.5-.337h.337c1.01,0,2.019,0,2.524.673a1.8,1.8,0,0,1,.168,1.514" transform="translate(-151.2 -221.2)" fill="#263b80"/><path d="M226.96,245.537h-2.692c-.168,0-.5.168-.5.336l-.168.841-.168-.337a3.958,3.958,0,0,0-3.2-1.178A6.465,6.465,0,0,0,214,250.752a5.015,5.015,0,0,0,1.01,4.206,4.24,4.24,0,0,0,3.533,1.346,5.378,5.378,0,0,0,3.87-1.514l-.168.841a.446.446,0,0,0,.5.5h2.524a1.118,1.118,0,0,0,.841-.673l1.514-9.422c-.168-.168-.5-.5-.673-.5m-3.87,5.384a3.254,3.254,0,0,1-3.2,2.692,2.691,2.691,0,0,1-1.851-.673,3.588,3.588,0,0,1-.5-2.019,3,3,0,0,1,4.879-2.019,2.938,2.938,0,0,1,.673,2.019" transform="translate(-200.712 -240.152)" fill="#263b80"/></g><path d="M422.16,245.537h-2.692c-.168,0-.5.168-.5.336l-.168.841-.168-.337a3.958,3.958,0,0,0-3.2-1.178,6.465,6.465,0,0,0-6.225,5.552,5.015,5.015,0,0,0,1.009,4.206,4.24,4.24,0,0,0,3.533,1.346,5.378,5.378,0,0,0,3.87-1.514l-.168.841a.446.446,0,0,0,.5.5h2.524a1.118,1.118,0,0,0,.841-.673l1.514-9.422c-.168-.168-.337-.5-.673-.5m-3.87,5.384a3.254,3.254,0,0,1-3.2,2.692,2.691,2.691,0,0,1-1.851-.673,3.588,3.588,0,0,1-.5-2.019,3,3,0,0,1,4.879-2.019,1.931,1.931,0,0,1,.673,2.019" transform="translate(-323.058 -45.486)" fill="#139ad6"/><path d="M296.956,246.8H294.1a.874.874,0,0,0-.673.336l-3.7,5.721-1.683-5.384a.777.777,0,0,0-.841-.5H284.5c-.336,0-.5.337-.5.673l3.029,8.917-2.86,4.038c-.168.336,0,.841.336.841H287.2a.874.874,0,0,0,.673-.337l9.254-13.292c.5-.5.168-1.01-.168-1.01" transform="translate(-224.27 -46.749)" fill="#263b80"/><path d="M477.556,222.089,475.2,237.232a.446.446,0,0,0,.5.5h2.356a1.118,1.118,0,0,0,.841-.673l2.356-14.806a.446.446,0,0,0-.5-.5H478.06c-.168-.168-.336,0-.5.337" transform="translate(-375.257 -26.917)" fill="#139ad6"/><path d="M19.349,189.619c-1.178-1.346-3.365-2.019-6.394-2.019H4.543a1.443,1.443,0,0,0-1.178,1.01L0,210.651a.77.77,0,0,0,.673.841H5.889l1.346-8.244v.337a1.443,1.443,0,0,1,1.178-1.01h2.524c4.879,0,8.581-2.019,9.759-7.571v-.5h0c.168-2.187-.168-3.533-1.346-4.879" fill="#263b80"/><path d="M40.743,220.4h0v.5c-1.178,5.721-4.879,7.571-9.759,7.571H28.46a1.443,1.443,0,0,0-1.178,1.01L25.6,239.749a.616.616,0,0,0,.673.673h4.375a.942.942,0,0,0,1.01-.841v-.168L32.5,234.2v-.337a.942.942,0,0,1,1.01-.841h.673c4.206,0,7.571-1.683,8.413-6.73.337-2.019.168-3.87-.841-5.048a1.723,1.723,0,0,0-1.01-.841" transform="translate(-20.216 -25.902)" fill="#139ad6"/><path d="M46.514,216.1c-.168,0-.337-.168-.5-.168a.618.618,0,0,1-.5-.168,8.889,8.889,0,0,0-2.187-.168H36.756a.618.618,0,0,0-.5.168.925.925,0,0,0-.5.841L34.4,225.359v.337a1.443,1.443,0,0,1,1.178-1.01H38.1c4.879,0,8.581-2.019,9.759-7.571a.618.618,0,0,1,.168-.5c-.337-.168-.5-.337-.841-.337-.5-.168-.5-.168-.673-.168" transform="translate(-27.165 -22.111)" fill="#232c65"/></g></svg>