<svg xmlns="http://www.w3.org/2000/svg" width="18" height="18" viewBox="0 0 18 18"><circle cx="8.271" cy="8.271" r="8.271" transform="translate(0.729 0.729)" fill="#079a73"/><path d="M9,18a9,9,0,1,1,9-9A9.01,9.01,0,0,1,9,18ZM9,1.394A7.606,7.606,0,1,0,16.606,9,7.614,7.614,0,0,0,9,1.394Z" fill="#079a73"/><path d="M135.484,168.746a.728.728,0,0,1-.519-.218l-2.688-2.732a.728.728,0,1,1,1.039-1.021l2.148,2.183,4.444-4.894a.729.729,0,1,1,1.078.98l-4.962,5.464a.729.729,0,0,1-.525.239Z" transform="translate(-127.62 -156.285)" fill="#fff"/></svg>