<svg xmlns="http://www.w3.org/2000/svg" width="14" height="14" viewBox="0 0 14 14"><circle cx="6.424" cy="6.424" r="6.424" transform="translate(0.576 0.576)" fill="#573e92"/><path d="M7,14a7,7,0,1,1,7-7A7.008,7.008,0,0,1,7,14ZM7,1.084A5.916,5.916,0,1,0,12.916,7,5.922,5.922,0,0,0,7,1.084Z" fill="#573e92"/><path d="M134.769,167.3a.576.576,0,0,1-.411-.172l-2.126-2.161a.576.576,0,0,1,.822-.808l1.7,1.726,3.514-3.87a.576.576,0,1,1,.853.775L135.2,167.11a.576.576,0,0,1-.415.189Z" transform="translate(-128.668 -157.561)" fill="#fff"/></svg>