<svg xmlns="http://www.w3.org/2000/svg" width="38.28" height="38" viewBox="0 0 38.28 38">
  <g id="t" transform="translate(-1264.25 -2886)">
    <ellipse id="Ellipse_3" data-name="Ellipse 3" cx="19.14" cy="19" rx="19.14" ry="19" transform="translate(1264.25 2886)" fill="#23abff"/>
    <path id="Shape_610" data-name="Shape 610" d="M1292.439,2898.153a7.524,7.524,0,0,1-2.39.922,3.733,3.733,0,0,0-2.745-1.2,3.781,3.781,0,0,0-3.762,3.8,3.866,3.866,0,0,0,.1.865,10.646,10.646,0,0,1-7.754-3.969,3.827,3.827,0,0,0,1.164,5.07,3.733,3.733,0,0,1-1.7-.477v.047a3.794,3.794,0,0,0,3.017,3.725,3.715,3.715,0,0,1-1.7.064,3.773,3.773,0,0,0,3.513,2.638,7.5,7.5,0,0,1-4.672,1.625,7.835,7.835,0,0,1-.9-.052,10.68,10.68,0,0,0,16.47-9.1l-.012-.492a7.61,7.61,0,0,0,1.88-1.963,7.457,7.457,0,0,1-2.16.6A3.811,3.811,0,0,0,1292.439,2898.153Z" fill="#fff"/>
  </g>
</svg>
