<svg xmlns="http://www.w3.org/2000/svg" width="38.28" height="38" viewBox="0 0 38.28 38">
  <g id="insta" transform="translate(-1310.47 -2886)">
    <ellipse id="Ellipse_3" data-name="Ellipse 3" cx="19.14" cy="19" rx="19.14" ry="19" transform="translate(1310.47 2886)" fill="#1686b0"/>
    <path id="Shape_611" data-name="Shape 611" d="M1337.592,2906.612v5.513h-3.247v-5.144c0-1.292-.47-2.174-1.645-2.174a1.774,1.774,0,0,0-1.666,1.169,2.159,2.159,0,0,0-.108.78v5.37h-3.248s.044-8.712,0-9.615h3.248v1.363l-.021.031h.021v-.031a3.232,3.232,0,0,1,2.927-1.589C1335.99,2902.284,1337.592,2903.658,1337.592,2906.612Zm-13.31-8.737a1.668,1.668,0,1,0-.043,3.323h.022a1.669,1.669,0,1,0,.021-3.323Zm-1.645,14.25h3.247v-9.615h-3.247Z" fill="#fff"/>
  </g>
</svg>
