<svg xmlns="http://www.w3.org/2000/svg" width="38.28" height="38" viewBox="0 0 38.28 38">
  <g id="youtube" transform="translate(-1356.72 -2886)">
    <ellipse id="Ellipse_3" data-name="Ellipse 3" cx="19.14" cy="19" rx="19.14" ry="19" transform="translate(1356.72 2886)" fill="#f63329"/>
    <path id="Shape_612" data-name="Shape 612" d="M1382.051,2909.977h-1.1l.005-.631a.516.516,0,0,1,.519-.51h.07a.517.517,0,0,1,.52.51Zm-4.136-1.352a.469.469,0,0,0-.509.412v3.068a.521.521,0,0,0,1.018,0v-3.068A.47.47,0,0,0,1377.915,2908.625Zm6.717-1.717v5.837a2.656,2.656,0,0,1-2.739,2.546h-11.265a2.656,2.656,0,0,1-2.739-2.546v-5.837a2.656,2.656,0,0,1,2.739-2.546h11.265A2.656,2.656,0,0,1,1384.632,2906.908Zm-13.252,6.471v-6.149h1.4v-.911l-3.722-.006v.9l1.162,0v6.166Zm4.186-5.233H1374.4v3.283a5.75,5.75,0,0,1,0,.8c-.095.255-.52.525-.686.027a6.454,6.454,0,0,1,0-.8l0-3.306h-1.158l0,3.254c0,.5-.011.871,0,1.04.028.3.018.646.3.845a1.417,1.417,0,0,0,1.779-.586l0,.678h.935v-5.231Zm3.724,3.76,0-2.733c0-1.042-.792-1.665-1.866-.822l0-2.032-1.163,0-.006,7.013.956-.014.087-.437C1378.523,2913.988,1379.292,2913.231,1379.29,2911.906Zm3.643-.362-.873,0c0,.034,0,.073,0,.116v.48a.473.473,0,0,1-.477.466h-.171a.473.473,0,0,1-.477-.466v-1.262h2v-.741a11.574,11.574,0,0,0-.06-1.393c-.143-.979-1.539-1.135-2.244-.633a1.3,1.3,0,0,0-.489.648,3.594,3.594,0,0,0-.148,1.155v1.629C1379.992,2914.257,1383.332,2913.874,1382.933,2911.544Zm-4.478-8.847a.78.78,0,0,0,.28.348.821.821,0,0,0,.476.13.749.749,0,0,0,.446-.137,1.057,1.057,0,0,0,.327-.411l-.022.45h1.3v-5.436h-1.022v4.231a.426.426,0,0,1-.851,0v-4.231h-1.066v3.667c0,.467.009.779.023.936A1.564,1.564,0,0,0,1378.455,2902.7Zm-3.932-3.07a4.46,4.46,0,0,1,.132-1.223,1.364,1.364,0,0,1,.477-.705,1.391,1.391,0,0,1,.88-.268,1.63,1.63,0,0,1,.772.172,1.282,1.282,0,0,1,.5.446,1.75,1.75,0,0,1,.24.566,4.447,4.447,0,0,1,.065.89v1.375a7.342,7.342,0,0,1-.06,1.111,1.747,1.747,0,0,1-.256.661,1.209,1.209,0,0,1-.5.452,1.617,1.617,0,0,1-.7.146,1.983,1.983,0,0,1-.75-.124,1.029,1.029,0,0,1-.479-.377,1.661,1.661,0,0,1-.244-.61,5.78,5.78,0,0,1-.072-1.072v-1.439Zm1.016,2.159a.517.517,0,1,0,1.031,0v-2.894a.517.517,0,1,0-1.031,0Zm-3.591,1.461h1.224v-4.169l1.447-3.572h-1.339l-.769,2.653-.78-2.66h-1.325l1.539,3.581Z" fill="#fff"/>
  </g>
</svg>
