<svg xmlns="http://www.w3.org/2000/svg" width="38.28" height="38" viewBox="0 0 38.28 38">
  <g id="f" transform="translate(-1218 -2886)">
    <ellipse id="Ellipse_3" data-name="Ellipse 3" cx="19.14" cy="19" rx="19.14" ry="19" transform="translate(1218 2886)" fill="#3e68c0"/>
    <path id="Shape_609" data-name="Shape 609" d="M1240.821,2897.878l-1.912,0a3.3,3.3,0,0,0-3.536,3.507V2903h-1.923a.3.3,0,0,0-.3.291v2.343a.3.3,0,0,0,.3.291h1.923v5.912a.3.3,0,0,0,.3.29h2.509a.3.3,0,0,0,.3-.29v-5.912h2.248a.3.3,0,0,0,.3-.291v-2.343a.287.287,0,0,0-.088-.206.306.306,0,0,0-.213-.085h-2.249v-1.371c0-.659.162-.993,1.05-.993h1.288a.3.3,0,0,0,.3-.291v-2.176A.3.3,0,0,0,1240.821,2897.878Z" fill="#fff"/>
  </g>
</svg>
