<svg id="video_asset" data-name="video asset" xmlns="http://www.w3.org/2000/svg" xmlns:xlink="http://www.w3.org/1999/xlink" width="123.314" height="125.784" viewBox="0 0 123.314 125.784">
  <defs>
    <clipPath id="clip-path">
      <rect id="Rectangle_1520" data-name="Rectangle 1520" width="123.314" height="125.784" fill="none"/>
    </clipPath>
  </defs>
  <g id="Mask_Group_7689" data-name="Mask Group 7689" clip-path="url(#clip-path)">
    <path id="Path_10934" data-name="Path 10934" d="M80.854,122.048a1.868,1.868,0,1,1-1.868,1.868,1.868,1.868,0,0,1,1.868-1.868" fill="#573e92"/>
    <path id="Path_10935" data-name="Path 10935" d="M80.854,110.092a1.868,1.868,0,1,1-1.868,1.868,1.868,1.868,0,0,1,1.868-1.868" fill="#573e92"/>
    <path id="Path_10936" data-name="Path 10936" d="M80.854,98.137A1.868,1.868,0,1,1,78.986,100a1.868,1.868,0,0,1,1.868-1.868" fill="#573e92"/>
    <path id="Path_10937" data-name="Path 10937" d="M80.854,86.182a1.868,1.868,0,1,1-1.868,1.868,1.868,1.868,0,0,1,1.868-1.868" fill="#573e92"/>
    <path id="Path_10938" data-name="Path 10938" d="M80.854,74.226a1.868,1.868,0,1,1-1.868,1.868,1.868,1.868,0,0,1,1.868-1.868" fill="#573e92"/>
    <path id="Path_10939" data-name="Path 10939" d="M80.854,62.271a1.868,1.868,0,1,1-1.868,1.868,1.868,1.868,0,0,1,1.868-1.868" fill="#573e92"/>
    <path id="Path_10940" data-name="Path 10940" d="M80.854,50.315a1.868,1.868,0,1,1-1.868,1.869,1.868,1.868,0,0,1,1.868-1.869" fill="#573e92"/>
    <path id="Path_10941" data-name="Path 10941" d="M80.854,38.36a1.868,1.868,0,1,1-1.868,1.868,1.868,1.868,0,0,1,1.868-1.868" fill="#573e92"/>
    <path id="Path_10942" data-name="Path 10942" d="M69.57,122.048a1.868,1.868,0,1,1-1.868,1.868,1.868,1.868,0,0,1,1.868-1.868" fill="#573e92"/>
    <path id="Path_10943" data-name="Path 10943" d="M69.57,110.092A1.868,1.868,0,1,1,67.7,111.96a1.868,1.868,0,0,1,1.868-1.868" fill="#573e92"/>
    <path id="Path_10944" data-name="Path 10944" d="M69.57,98.137A1.868,1.868,0,1,1,67.7,100a1.868,1.868,0,0,1,1.868-1.868" fill="#573e92"/>
    <path id="Path_10945" data-name="Path 10945" d="M69.57,86.182A1.868,1.868,0,1,1,67.7,88.05a1.868,1.868,0,0,1,1.868-1.868" fill="#573e92"/>
    <path id="Path_10946" data-name="Path 10946" d="M69.57,74.226A1.868,1.868,0,1,1,67.7,76.094a1.868,1.868,0,0,1,1.868-1.868" fill="#573e92"/>
    <path id="Path_10947" data-name="Path 10947" d="M69.57,62.271A1.868,1.868,0,1,1,67.7,64.139a1.868,1.868,0,0,1,1.868-1.868" fill="#573e92"/>
    <path id="Path_10948" data-name="Path 10948" d="M69.57,50.315A1.868,1.868,0,1,1,67.7,52.184a1.868,1.868,0,0,1,1.868-1.869" fill="#573e92"/>
    <path id="Path_10949" data-name="Path 10949" d="M69.57,38.36A1.868,1.868,0,1,1,67.7,40.228,1.868,1.868,0,0,1,69.57,38.36" fill="#573e92"/>
    <path id="Path_10950" data-name="Path 10950" d="M58.286,122.048a1.868,1.868,0,1,1-1.868,1.868,1.868,1.868,0,0,1,1.868-1.868" fill="#573e92"/>
    <path id="Path_10951" data-name="Path 10951" d="M58.286,110.092a1.868,1.868,0,1,1-1.868,1.868,1.868,1.868,0,0,1,1.868-1.868" fill="#573e92"/>
    <path id="Path_10952" data-name="Path 10952" d="M58.286,98.137A1.868,1.868,0,1,1,56.418,100a1.868,1.868,0,0,1,1.868-1.868" fill="#573e92"/>
    <path id="Path_10953" data-name="Path 10953" d="M58.286,86.182a1.868,1.868,0,1,1-1.868,1.868,1.868,1.868,0,0,1,1.868-1.868" fill="#573e92"/>
    <path id="Path_10954" data-name="Path 10954" d="M58.286,74.226a1.868,1.868,0,1,1-1.868,1.868,1.868,1.868,0,0,1,1.868-1.868" fill="#573e92"/>
    <path id="Path_10955" data-name="Path 10955" d="M58.286,62.271a1.868,1.868,0,1,1-1.868,1.868,1.868,1.868,0,0,1,1.868-1.868" fill="#573e92"/>
    <path id="Path_10956" data-name="Path 10956" d="M58.286,50.315a1.868,1.868,0,1,1-1.868,1.869,1.868,1.868,0,0,1,1.868-1.869" fill="#573e92"/>
    <path id="Path_10957" data-name="Path 10957" d="M58.286,38.36a1.868,1.868,0,1,1-1.868,1.868,1.868,1.868,0,0,1,1.868-1.868" fill="#573e92"/>
    <path id="Path_10958" data-name="Path 10958" d="M47,122.048a1.868,1.868,0,1,1-1.868,1.868A1.868,1.868,0,0,1,47,122.048" fill="#573e92"/>
    <path id="Path_10959" data-name="Path 10959" d="M47,110.092a1.868,1.868,0,1,1-1.868,1.868A1.868,1.868,0,0,1,47,110.092" fill="#573e92"/>
    <path id="Path_10960" data-name="Path 10960" d="M47,98.137A1.868,1.868,0,1,1,45.135,100,1.868,1.868,0,0,1,47,98.137" fill="#573e92"/>
    <path id="Path_10961" data-name="Path 10961" d="M47,86.182a1.868,1.868,0,1,1-1.868,1.868A1.868,1.868,0,0,1,47,86.182" fill="#573e92"/>
    <path id="Path_10962" data-name="Path 10962" d="M47,74.226a1.868,1.868,0,1,1-1.868,1.868A1.868,1.868,0,0,1,47,74.226" fill="#573e92"/>
    <path id="Path_10963" data-name="Path 10963" d="M47,62.271a1.868,1.868,0,1,1-1.868,1.868A1.868,1.868,0,0,1,47,62.271" fill="#573e92"/>
    <path id="Path_10964" data-name="Path 10964" d="M47,50.315a1.868,1.868,0,1,1-1.868,1.869A1.868,1.868,0,0,1,47,50.315" fill="#573e92"/>
    <path id="Path_10965" data-name="Path 10965" d="M47,38.36a1.868,1.868,0,1,1-1.868,1.868A1.868,1.868,0,0,1,47,38.36" fill="#573e92"/>
    <path id="Path_10966" data-name="Path 10966" d="M35.719,122.048a1.868,1.868,0,1,1-1.868,1.868,1.868,1.868,0,0,1,1.868-1.868" fill="#573e92"/>
    <path id="Path_10967" data-name="Path 10967" d="M35.719,110.092a1.868,1.868,0,1,1-1.868,1.868,1.868,1.868,0,0,1,1.868-1.868" fill="#573e92"/>
    <path id="Path_10968" data-name="Path 10968" d="M35.719,98.137A1.868,1.868,0,1,1,33.851,100a1.868,1.868,0,0,1,1.868-1.868" fill="#573e92"/>
    <path id="Path_10969" data-name="Path 10969" d="M35.719,86.182a1.868,1.868,0,1,1-1.868,1.868,1.868,1.868,0,0,1,1.868-1.868" fill="#573e92"/>
    <path id="Path_10970" data-name="Path 10970" d="M35.719,74.226a1.868,1.868,0,1,1-1.868,1.868,1.868,1.868,0,0,1,1.868-1.868" fill="#573e92"/>
    <path id="Path_10971" data-name="Path 10971" d="M35.719,62.271a1.868,1.868,0,1,1-1.868,1.868,1.868,1.868,0,0,1,1.868-1.868" fill="#573e92"/>
    <path id="Path_10972" data-name="Path 10972" d="M35.719,50.315a1.868,1.868,0,1,1-1.868,1.869,1.868,1.868,0,0,1,1.868-1.869" fill="#573e92"/>
    <path id="Path_10973" data-name="Path 10973" d="M35.719,38.36a1.868,1.868,0,1,1-1.868,1.868,1.868,1.868,0,0,1,1.868-1.868" fill="#573e92"/>
    <path id="Path_10974" data-name="Path 10974" d="M24.435,122.048a1.868,1.868,0,1,1-1.868,1.868,1.868,1.868,0,0,1,1.868-1.868" fill="#573e92"/>
    <path id="Path_10975" data-name="Path 10975" d="M24.435,110.092a1.868,1.868,0,1,1-1.868,1.868,1.868,1.868,0,0,1,1.868-1.868" fill="#573e92"/>
    <path id="Path_10976" data-name="Path 10976" d="M24.435,98.137A1.868,1.868,0,1,1,22.567,100a1.868,1.868,0,0,1,1.868-1.868" fill="#573e92"/>
    <path id="Path_10977" data-name="Path 10977" d="M24.435,86.182a1.868,1.868,0,1,1-1.868,1.868,1.868,1.868,0,0,1,1.868-1.868" fill="#573e92"/>
    <path id="Path_10978" data-name="Path 10978" d="M24.435,74.226a1.868,1.868,0,1,1-1.868,1.868,1.868,1.868,0,0,1,1.868-1.868" fill="#573e92"/>
    <path id="Path_10979" data-name="Path 10979" d="M24.435,62.271a1.868,1.868,0,1,1-1.868,1.868,1.868,1.868,0,0,1,1.868-1.868" fill="#573e92"/>
    <path id="Path_10980" data-name="Path 10980" d="M24.435,50.315a1.868,1.868,0,1,1-1.868,1.869,1.868,1.868,0,0,1,1.868-1.869" fill="#573e92"/>
    <path id="Path_10981" data-name="Path 10981" d="M24.435,38.36a1.868,1.868,0,1,1-1.868,1.868,1.868,1.868,0,0,1,1.868-1.868" fill="#573e92"/>
    <path id="Path_10982" data-name="Path 10982" d="M13.152,122.048a1.868,1.868,0,1,1-1.868,1.868,1.868,1.868,0,0,1,1.868-1.868" fill="#573e92"/>
    <path id="Path_10983" data-name="Path 10983" d="M13.152,110.092a1.868,1.868,0,1,1-1.868,1.868,1.868,1.868,0,0,1,1.868-1.868" fill="#573e92"/>
    <path id="Path_10984" data-name="Path 10984" d="M13.152,98.137A1.868,1.868,0,1,1,11.284,100a1.868,1.868,0,0,1,1.868-1.868" fill="#573e92"/>
    <path id="Path_10985" data-name="Path 10985" d="M13.152,86.182a1.868,1.868,0,1,1-1.868,1.868,1.868,1.868,0,0,1,1.868-1.868" fill="#573e92"/>
    <path id="Path_10986" data-name="Path 10986" d="M13.152,74.226a1.868,1.868,0,1,1-1.868,1.868,1.868,1.868,0,0,1,1.868-1.868" fill="#573e92"/>
    <path id="Path_10987" data-name="Path 10987" d="M13.152,62.271a1.868,1.868,0,1,1-1.868,1.868,1.868,1.868,0,0,1,1.868-1.868" fill="#573e92"/>
    <path id="Path_10988" data-name="Path 10988" d="M13.152,50.315a1.868,1.868,0,1,1-1.868,1.869,1.868,1.868,0,0,1,1.868-1.869" fill="#573e92"/>
    <path id="Path_10989" data-name="Path 10989" d="M13.152,38.36a1.868,1.868,0,1,1-1.868,1.868,1.868,1.868,0,0,1,1.868-1.868" fill="#573e92"/>
    <path id="Path_10990" data-name="Path 10990" d="M1.868,122.048A1.868,1.868,0,1,1,0,123.916a1.868,1.868,0,0,1,1.868-1.868" fill="#573e92"/>
    <path id="Path_10991" data-name="Path 10991" d="M1.868,110.092A1.868,1.868,0,1,1,0,111.96a1.868,1.868,0,0,1,1.868-1.868" fill="#573e92"/>
    <path id="Path_10992" data-name="Path 10992" d="M1.868,98.137A1.868,1.868,0,1,1,0,100a1.868,1.868,0,0,1,1.868-1.868" fill="#573e92"/>
    <path id="Path_10993" data-name="Path 10993" d="M1.868,86.182A1.868,1.868,0,1,1,0,88.05a1.868,1.868,0,0,1,1.868-1.868" fill="#573e92"/>
    <path id="Path_10994" data-name="Path 10994" d="M1.868,74.226A1.868,1.868,0,1,1,0,76.094a1.868,1.868,0,0,1,1.868-1.868" fill="#573e92"/>
    <path id="Path_10995" data-name="Path 10995" d="M1.868,62.271A1.868,1.868,0,1,1,0,64.139a1.868,1.868,0,0,1,1.868-1.868" fill="#573e92"/>
    <path id="Path_10996" data-name="Path 10996" d="M1.868,50.315A1.868,1.868,0,1,1,0,52.184a1.869,1.869,0,0,1,1.868-1.869" fill="#573e92"/>
    <path id="Path_10997" data-name="Path 10997" d="M1.868,38.36A1.868,1.868,0,1,1,0,40.228,1.868,1.868,0,0,1,1.868,38.36" fill="#573e92"/>
    <path id="Path_10998" data-name="Path 10998" d="M119.1,84.809H42.722a4.22,4.22,0,0,1-4.216-4.215V4.215A4.22,4.22,0,0,1,42.722,0H119.1a4.22,4.22,0,0,1,4.214,4.215V80.594a4.22,4.22,0,0,1-4.214,4.215M42.722,1.8A2.414,2.414,0,0,0,40.31,4.215V80.594A2.414,2.414,0,0,0,42.722,83H119.1a2.414,2.414,0,0,0,2.41-2.411V4.215A2.414,2.414,0,0,0,119.1,1.8Z" fill="#079a73"/>
  </g>
</svg>
