<?xml version="1.0" standalone="no"?>
<!DOCTYPE svg PUBLIC "-//W3C//DTD SVG 20010904//EN"
 "http://www.w3.org/TR/2001/REC-SVG-20010904/DTD/svg10.dtd">
<svg version="1.0" xmlns="http://www.w3.org/2000/svg"
 width="512.000000pt" height="512.000000pt" viewBox="0 0 512.000000 512.000000"
 preserveAspectRatio="xMidYMid meet">

<g transform="translate(0.000000,512.000000) scale(0.100000,-0.100000)"
fill="#000000" stroke="none">
<path d="M29 4204 l-24 -26 0 -1618 0 -1618 24 -26 24 -26 2507 0 2507 0 24
26 24 26 0 1618 0 1618 -24 26 -24 26 -2507 0 -2507 0 -24 -26z m2569 -636 c7
-13 63 -176 125 -363 l114 -340 89 -6 c49 -4 220 -7 381 -8 255 -1 294 -3 308
-17 35 -36 17 -53 -296 -284 l-306 -226 114 -360 c62 -197 113 -364 113 -371
0 -18 -40 -42 -59 -36 -9 4 -149 101 -311 217 -162 116 -302 210 -310 210 -8
0 -148 -94 -310 -210 -162 -116 -302 -213 -311 -217 -19 -6 -59 18 -59 36 0 7
51 174 113 371 l114 360 -306 226 c-313 231 -331 248 -296 284 14 14 53 16
308 17 161 1 332 4 381 8 l89 6 114 340 c62 187 118 350 125 363 7 14 21 22
38 22 17 0 31 -8 38 -22z"/>
</g>
</svg>
