<svg xmlns="http://www.w3.org/2000/svg" width="18" height="13" viewBox="0 0 18 13">
  <g id="china_1_" data-name="china (1)" transform="translate(-12 -27.751)">
    <path id="Path_4109" data-name="Path 4109" d="M12,27.751H30v13H12Z" transform="translate(0 0)" fill="#d60a2e"/>
    <g id="Group_2916" data-name="Group 2916" transform="translate(12.958 28.698)">
      <path id="Path_4110" data-name="Path 4110" d="M19.576,40.976l.631,1.278,1.411.2-1.021,1,.241,1.405L19.576,44.2l-1.262.663.241-1.405-1.021-1,1.411-.2Z" transform="translate(-17.534 -39.634)" fill="#fed953"/>
      <path id="Path_4111" data-name="Path 4111" d="M47.023,55.152l.252.511.564.082-.408.4.1.561-.5-.265-.5.265.1-.561-.408-.4.564-.082Z" transform="translate(-41.244 -51.357)" fill="#fed953"/>
      <path id="Path_4112" data-name="Path 4112" d="M47.062,42.248l.461.335.537-.19-.176.542.346.452h-.57l-.323.469-.176-.542-.546-.162.461-.335Z" transform="translate(-41.582 -40.686)" fill="#fed953"/>
      <path id="Path_4113" data-name="Path 4113" d="M38.529,33.245l-.108.559.4.406-.565.07-.262.506-.242-.516-.562-.093.416-.389-.085-.563.5.275Z" transform="translate(-33.788 -33.225)" fill="#fed953"/>
      <path id="Path_4114" data-name="Path 4114" d="M38.529,66.358l-.108.559.4.406-.565.07-.262.506-.242-.516-.562-.093.416-.389-.085-.563.5.275Z" transform="translate(-33.788 -60.607)" fill="#fed953"/>
    </g>
  </g>
</svg>
